<?xml version="1.0" encoding="utf-8"?>
<!-- Generator: Adobe Illustrator 27.5.0, SVG Export Plug-In . SVG Version: 6.00 Build 0)  -->
<svg version="1.1" xmlns="http://www.w3.org/2000/svg" xmlns:xlink="http://www.w3.org/1999/xlink" x="0px" y="0px"
	 viewBox="0 0 2500 2500" style="enable-background:new 0 0 2500 2500;" xml:space="preserve">
<g id="Background">
	<rect style="fill:#FFFFFF;" width="2500" height="2500"/>
</g>
<g id="Illustration">
	<g id="Backup_server_1_">
		<circle style="fill:#F2E6DC;" cx="1250" cy="1250" r="915"/>
		<g>
			<g>
				<path style="fill:#E6D0BE;" d="M2094.351,1322.77h-13.727c-1.229-6.691-2.982-13.198-5.21-19.481l11.879-6.859l-23.227-40.232h0
					l-11.906,6.874c-4.369-5.115-9.135-9.88-14.25-14.25l6.874-11.907l-40.231-23.228h0l-6.858,11.88
					c-6.283-2.228-12.79-3.981-19.481-5.211v-13.727h-46.455l0,0v13.726c-6.691,1.229-13.198,2.982-19.481,5.211l-6.859-11.88v0
					l-40.232,23.228l6.874,11.907c-5.115,4.369-9.88,9.134-14.25,14.25l-11.906-6.874h0l-23.227,40.232l0,0l11.879,6.859
					c-2.228,6.283-3.981,12.79-5.21,19.481h-13.727v0v46.455h13.727c1.229,6.691,2.982,13.198,5.21,19.481l-11.879,6.859v0
					l23.227,40.232h0l11.906-6.874c4.369,5.115,9.135,9.88,14.25,14.25l-6.874,11.906l40.232,23.228l0,0l6.859-11.88
					c6.283,2.228,12.79,3.981,19.481,5.21v13.727l0,0h46.455v-13.727c6.691-1.229,13.198-2.982,19.481-5.21l6.858,11.88h0
					l40.232-23.228l-6.874-11.906c5.115-4.369,9.88-9.135,14.25-14.25l11.906,6.874h0l23.227-40.232v0l-11.879-6.859
					c2.228-6.283,3.981-12.79,5.21-19.481h13.727V1322.77z M2037.536,1380.426c-8.372,22.145-25.981,39.754-48.127,48.125
					c-75.244,28.443-145.422-41.737-116.977-116.981c8.372-22.145,25.982-39.754,48.127-48.126
					C1995.804,1235.001,2065.983,1305.181,2037.536,1380.426z"/>
			</g>
			<path style="fill:#F2E6DC;" d="M1954.984,1449.823c-57.25,0-103.827-46.575-103.827-103.825
				c0-50.974,37.952-95.113,88.281-102.673c1.193-0.164,2.328,0.648,2.507,1.854c0.181,1.204-0.648,2.328-1.853,2.508
				c-48.187,7.237-84.526,49.501-84.526,98.31c0,54.817,44.598,99.415,99.417,99.415c45.296,0,84.868-30.579,96.234-74.361
				c0.306-1.178,1.505-1.893,2.688-1.58c1.178,0.306,1.885,1.509,1.579,2.687
				C2043.616,1417.887,2002.289,1449.823,1954.984,1449.823z"/>
		</g>
		<g>
			<g>
				<rect x="412.442" y="500.911" style="fill:#E6D0BE;" width="649.413" height="1533.336"/>
				<g>
					<path style="fill:#BC8271;" d="M1023.654,1957.915H448.52c-1.218,0-2.205-0.986-2.205-2.205v-106.113
						c0-1.219,0.987-2.205,2.205-2.205h575.134c1.218,0,2.205,0.986,2.205,2.205v106.113
						C1025.859,1956.929,1024.872,1957.915,1023.654,1957.915z M450.725,1953.506h570.724v-101.704H450.725V1953.506z"/>
					<path style="fill:#D3BBA3;" d="M741.919,1919.047c-9.188,0-16.663-7.476-16.663-16.663s7.475-16.663,16.663-16.663
						c9.188,0,16.662,7.476,16.662,16.663S751.107,1919.047,741.919,1919.047z M741.919,1890.13
						c-6.756,0-12.253,5.497-12.253,12.254s5.497,12.254,12.253,12.254c6.757,0,12.253-5.497,12.253-12.254
						S748.676,1890.13,741.919,1890.13z"/>
					<rect x="479.322" y="1889.51" style="fill:#F2E6DC;" width="143.249" height="26.53"/>
					<rect x="850.984" y="1889.508" style="fill:#F2E6DC;" width="143.249" height="26.53"/>
				</g>
				<g>
					<path style="fill:#BC8271;" d="M1022.062,1819.434H446.928c-1.218,0-2.205-0.986-2.205-2.205v-106.113
						c0-1.219,0.987-2.205,2.205-2.205h575.134c1.218,0,2.205,0.986,2.205,2.205v106.113
						C1024.267,1818.448,1023.279,1819.434,1022.062,1819.434z M449.133,1815.024h570.724V1713.32H449.133V1815.024z"/>
					<path style="fill:#D3BBA3;" d="M740.327,1780.567c-9.188,0-16.662-7.476-16.662-16.663s7.475-16.663,16.662-16.663
						c9.188,0,16.663,7.476,16.663,16.663S749.516,1780.567,740.327,1780.567z M740.327,1751.651
						c-6.757,0-12.253,5.497-12.253,12.254s5.496,12.254,12.253,12.254c6.756,0,12.253-5.497,12.253-12.254
						S747.084,1751.651,740.327,1751.651z"/>
					<rect x="477.73" y="1751.03" style="fill:#F2E6DC;" width="143.249" height="26.53"/>
					<rect x="849.392" y="1751.028" style="fill:#F2E6DC;" width="143.249" height="26.53"/>
				</g>
				<g>
					<path style="fill:#BC8271;" d="M1022.062,1680.952H446.928c-1.218,0-2.205-0.986-2.205-2.205v-106.113
						c0-1.219,0.987-2.205,2.205-2.205h575.134c1.218,0,2.205,0.986,2.205,2.205v106.113
						C1024.267,1679.966,1023.279,1680.952,1022.062,1680.952z M449.133,1676.542h570.724v-101.704H449.133V1676.542z"/>
					<path style="fill:#D3BBA3;" d="M740.327,1642.086c-9.188,0-16.662-7.476-16.662-16.663s7.475-16.663,16.662-16.663
						c9.188,0,16.663,7.476,16.663,16.663S749.516,1642.086,740.327,1642.086z M740.327,1613.169
						c-6.757,0-12.253,5.497-12.253,12.254s5.496,12.254,12.253,12.254c6.756,0,12.253-5.497,12.253-12.254
						S747.084,1613.169,740.327,1613.169z"/>
					<rect x="477.73" y="1612.548" style="fill:#F2E6DC;" width="143.249" height="26.53"/>
					<rect x="849.392" y="1612.547" style="fill:#F2E6DC;" width="143.249" height="26.53"/>
				</g>
				<g>
					<path style="fill:#84524D;" d="M1025.256,1544.066H450.122c-1.218,0-2.205-0.986-2.205-2.205v-106.113
						c0-1.219,0.987-2.205,2.205-2.205h575.134c1.218,0,2.205,0.986,2.205,2.205v106.113
						C1027.461,1543.08,1026.474,1544.066,1025.256,1544.066z M452.327,1539.656h570.724v-101.704H452.327V1539.656z"/>
					<g>
						
							<ellipse transform="matrix(0.7071 -0.7071 0.7071 0.7071 -767.8493 1131.0249)" style="fill:#D3BBA3;" cx="981.343" cy="1492.389" rx="14.458" ry="14.458"/>
						<circle style="fill:#D3BBA3;" cx="933.46" cy="1490.662" r="14.458"/>
						<circle style="fill:#BC8271;" cx="885.709" cy="1490.662" r="14.458"/>
					</g>
					<path style="fill:#D87355;" d="M498.136,1531.07c-1.218,0-2.205-0.986-2.205-2.205v-79.584c0-1.219,0.987-2.205,2.205-2.205
						s2.205,0.986,2.205,2.205v79.584C500.341,1530.083,499.354,1531.07,498.136,1531.07z"/>
					<path style="fill:#D87355;" d="M475.859,1531.07c-1.218,0-2.205-0.986-2.205-2.205v-44.852c0-1.219,0.987-2.205,2.205-2.205
						s2.205,0.986,2.205,2.205v44.852C478.064,1530.083,477.076,1531.07,475.859,1531.07z"/>
					<path style="fill:#D87355;" d="M543.497,1481.031c-1.218,0-2.205-0.986-2.205-2.205v-28.749c0-1.219,0.987-2.205,2.205-2.205
						s2.205,0.986,2.205,2.205v28.749C545.702,1480.044,544.715,1481.031,543.497,1481.031z"/>
					<path style="fill:#D87355;" d="M521.22,1531.866c-1.218,0-2.205-0.986-2.205-2.205v-79.584c0-1.219,0.987-2.205,2.205-2.205
						c1.218,0,2.205,0.986,2.205,2.205v79.584C523.425,1530.88,522.438,1531.866,521.22,1531.866z"/>
					<path style="fill:#D87355;" d="M588.067,1504.879c-1.218,0-2.205-0.986-2.205-2.205v-54.985c0-1.219,0.987-2.205,2.205-2.205
						c1.218,0,2.205,0.986,2.205,2.205v54.985C590.271,1503.893,589.284,1504.879,588.067,1504.879z"/>
					<path style="fill:#D87355;" d="M565.789,1529.478c-1.218,0-2.205-0.986-2.205-2.205v-79.584c0-1.219,0.987-2.205,2.205-2.205
						s2.205,0.986,2.205,2.205v79.584C567.994,1528.492,567.007,1529.478,565.789,1529.478z"/>
					<path style="fill:#D87355;" d="M633.428,1481.033c-1.218,0-2.205-0.986-2.205-2.205v-30.344c0-1.219,0.987-2.205,2.205-2.205
						s2.205,0.986,2.205,2.205v30.344C635.633,1480.047,634.646,1481.033,633.428,1481.033z"/>
					<path style="fill:#D87355;" d="M611.15,1530.273c-1.218,0-2.205-0.986-2.205-2.205v-79.584c0-1.219,0.987-2.205,2.205-2.205
						s2.205,0.986,2.205,2.205v79.584C613.355,1529.287,612.368,1530.273,611.15,1530.273z"/>
				</g>
				<g>
					<path style="fill:#84524D;" d="M1026.831,1415.95H451.697c-1.218,0-2.205-0.986-2.205-2.205v-106.113
						c0-1.219,0.987-2.205,2.205-2.205h575.134c1.218,0,2.205,0.986,2.205,2.205v106.113
						C1029.036,1414.963,1028.049,1415.95,1026.831,1415.95z M453.902,1411.54h570.724v-101.704H453.902V1411.54z"/>
					<g>
						
							<ellipse transform="matrix(0.1602 -0.9871 0.9871 0.1602 -521.1818 2115.9661)" style="fill:#BC8271;" cx="982.919" cy="1364.271" rx="14.458" ry="14.458"/>
						<circle style="fill:#D3BBA3;" cx="935.035" cy="1362.545" r="14.458"/>
						<circle style="fill:#D3BBA3;" cx="887.284" cy="1362.545" r="14.458"/>
					</g>
					<path style="fill:#D87355;" d="M499.711,1402.951c-1.218,0-2.205-0.986-2.205-2.205v-79.584c0-1.219,0.987-2.205,2.205-2.205
						c1.218,0,2.205,0.986,2.205,2.205v79.584C501.916,1401.965,500.929,1402.951,499.711,1402.951z"/>
					<path style="fill:#D87355;" d="M477.434,1402.951c-1.218,0-2.205-0.986-2.205-2.205v-58.785c0-1.219,0.987-2.205,2.205-2.205
						c1.218,0,2.205,0.986,2.205,2.205v58.785C479.638,1401.965,478.651,1402.951,477.434,1402.951z"/>
					<path style="fill:#D87355;" d="M545.073,1403.748c-1.218,0-2.205-0.986-2.205-2.205v-79.584c0-1.219,0.987-2.205,2.205-2.205
						c1.218,0,2.205,0.986,2.205,2.205v79.584C547.277,1402.762,546.29,1403.748,545.073,1403.748z"/>
					<path style="fill:#D87355;" d="M522.795,1403.748c-1.218,0-2.205-0.986-2.205-2.205v-31.587c0-1.219,0.987-2.205,2.205-2.205
						c1.218,0,2.205,0.986,2.205,2.205v31.587C525,1402.762,524.013,1403.748,522.795,1403.748z"/>
					<path style="fill:#D87355;" d="M589.643,1401.36c-1.218,0-2.205-0.986-2.205-2.205v-79.585c0-1.219,0.987-2.205,2.205-2.205
						c1.218,0,2.205,0.986,2.205,2.205v79.585C591.847,1400.374,590.86,1401.36,589.643,1401.36z"/>
					<path style="fill:#D87355;" d="M567.365,1401.36c-1.218,0-2.205-0.986-2.205-2.205v-24.012c0-1.219,0.987-2.205,2.205-2.205
						s2.205,0.986,2.205,2.205v24.012C569.57,1400.374,568.583,1401.36,567.365,1401.36z"/>
					<path style="fill:#D87355;" d="M635.004,1358.682c-1.218,0-2.205-0.986-2.205-2.205v-36.11c0-1.219,0.987-2.205,2.205-2.205
						c1.218,0,2.205,0.986,2.205,2.205v36.11C637.209,1357.696,636.222,1358.682,635.004,1358.682z"/>
					<path style="fill:#D87355;" d="M612.727,1402.156c-1.218,0-2.205-0.986-2.205-2.205v-62.138c0-1.219,0.987-2.205,2.205-2.205
						s2.205,0.986,2.205,2.205v62.138C614.931,1401.17,613.944,1402.156,612.727,1402.156z"/>
				</g>
				<g>
					<path style="fill:#84524D;" d="M1025.242,1278.267H450.108c-1.218,0-2.205-0.986-2.205-2.205v-106.113
						c0-1.219,0.987-2.205,2.205-2.205h575.134c1.218,0,2.205,0.986,2.205,2.205v106.113
						C1027.447,1277.281,1026.459,1278.267,1025.242,1278.267z M452.313,1273.857h570.724v-101.704H452.313V1273.857z"/>
					<g>
						<circle style="fill:#D3BBA3;" cx="981.329" cy="1226.589" r="14.458"/>
						
							<ellipse transform="matrix(0.7071 -0.7071 0.7071 0.7071 -592.7087 1018.7996)" style="fill:#BC8271;" cx="933.445" cy="1224.863" rx="14.458" ry="14.458"/>
						
							<ellipse transform="matrix(0.2298 -0.9732 0.9732 0.2298 -509.893 1805.4473)" style="fill:#BC8271;" cx="885.695" cy="1224.863" rx="14.458" ry="14.458"/>
					</g>
					<path style="fill:#D87355;" d="M498.122,1205.23c-1.218,0-2.205-0.986-2.205-2.205v-19.544c0-1.219,0.987-2.205,2.205-2.205
						c1.218,0,2.205,0.986,2.205,2.205v19.544C500.327,1204.244,499.34,1205.23,498.122,1205.23z"/>
					<path style="fill:#D87355;" d="M475.845,1265.27c-1.218,0-2.205-0.986-2.205-2.205v-79.584c0-1.219,0.987-2.205,2.205-2.205
						s2.205,0.986,2.205,2.205v79.584C478.049,1264.284,477.062,1265.27,475.845,1265.27z"/>
					<path style="fill:#D87355;" d="M543.484,1231.147c-1.218,0-2.205-0.986-2.205-2.205v-44.667c0-1.219,0.987-2.205,2.205-2.205
						s2.205,0.986,2.205,2.205v44.667C545.688,1230.161,544.701,1231.147,543.484,1231.147z"/>
					<path style="fill:#D87355;" d="M521.206,1266.067c-1.218,0-2.205-0.986-2.205-2.205v-79.587c0-1.219,0.987-2.205,2.205-2.205
						s2.205,0.986,2.205,2.205v79.587C523.411,1265.081,522.424,1266.067,521.206,1266.067z"/>
					<path style="fill:#D87355;" d="M588.052,1263.679c-1.218,0-2.205-0.986-2.205-2.205v-79.587c0-1.219,0.987-2.205,2.205-2.205
						s2.205,0.986,2.205,2.205v79.587C590.257,1262.693,589.27,1263.679,588.052,1263.679z"/>
					<path style="fill:#D87355;" d="M565.775,1263.679c-1.218,0-2.205-0.986-2.205-2.205v-79.587c0-1.219,0.987-2.205,2.205-2.205
						c1.218,0,2.205,0.986,2.205,2.205v79.587C567.98,1262.693,566.993,1263.679,565.775,1263.679z"/>
					<path style="fill:#D87355;" d="M633.414,1242.557c-1.218,0-2.205-0.986-2.205-2.205v-57.668c0-1.219,0.987-2.205,2.205-2.205
						s2.205,0.986,2.205,2.205v57.668C635.619,1241.571,634.631,1242.557,633.414,1242.557z"/>
					<path style="fill:#D87355;" d="M611.136,1264.474c-1.218,0-2.205-0.986-2.205-2.205v-59.244c0-1.219,0.987-2.205,2.205-2.205
						s2.205,0.986,2.205,2.205v59.244C613.341,1263.488,612.354,1264.474,611.136,1264.474z"/>
				</g>
				<g>
					<path style="fill:#84524D;" d="M1023.621,823.045H448.487c-1.218,0-2.205-0.986-2.205-2.205V714.727
						c0-1.219,0.987-2.205,2.205-2.205h575.134c1.218,0,2.205,0.986,2.205,2.205V820.84
						C1025.825,822.059,1024.838,823.045,1023.621,823.045z M450.692,818.635h570.724V716.931H450.692V818.635z"/>
					<g>
						<circle style="fill:#BC8271;" cx="979.708" cy="771.367" r="14.458"/>
						
							<ellipse transform="matrix(0.2298 -0.9732 0.9732 0.2298 -31.3176 1499.7103)" style="fill:#D3BBA3;" cx="931.825" cy="769.641" rx="14.458" ry="14.458"/>
						
							<ellipse transform="matrix(0.9239 -0.3827 0.3827 0.9239 -227.2329 396.9062)" style="fill:#D3BBA3;" cx="884.074" cy="769.641" rx="14.458" ry="14.458"/>
					</g>
					<path style="fill:#D87355;" d="M496.501,810.049c-1.218,0-2.205-0.986-2.205-2.205v-79.585c0-1.219,0.987-2.205,2.205-2.205
						c1.218,0,2.205,0.986,2.205,2.205v79.585C498.706,809.062,497.719,810.049,496.501,810.049z"/>
					<path style="fill:#D87355;" d="M474.223,810.049c-1.218,0-2.205-0.986-2.205-2.205v-58.785c0-1.219,0.987-2.205,2.205-2.205
						c1.218,0,2.205,0.986,2.205,2.205v58.785C476.428,809.062,475.441,810.049,474.223,810.049z"/>
					<path style="fill:#D87355;" d="M541.862,810.845c-1.218,0-2.205-0.986-2.205-2.205v-79.587c0-1.219,0.987-2.205,2.205-2.205
						s2.205,0.986,2.205,2.205v79.587C544.067,809.859,543.08,810.845,541.862,810.845z"/>
					<path style="fill:#D87355;" d="M519.585,810.845c-1.218,0-2.205-0.986-2.205-2.205v-31.587c0-1.219,0.987-2.205,2.205-2.205
						s2.205,0.986,2.205,2.205v31.587C521.789,809.859,520.802,810.845,519.585,810.845z"/>
					<path style="fill:#D87355;" d="M586.432,808.457c-1.218,0-2.205-0.986-2.205-2.205v-79.584c0-1.219,0.987-2.205,2.205-2.205
						s2.205,0.986,2.205,2.205v79.584C588.637,807.471,587.65,808.457,586.432,808.457z"/>
					<path style="fill:#D87355;" d="M564.154,808.457c-1.218,0-2.205-0.986-2.205-2.205v-24.014c0-1.219,0.987-2.205,2.205-2.205
						s2.205,0.986,2.205,2.205v24.014C566.359,807.471,565.371,808.457,564.154,808.457z"/>
					<path style="fill:#D87355;" d="M631.794,765.778c-1.218,0-2.205-0.986-2.205-2.205v-36.11c0-1.219,0.987-2.205,2.205-2.205
						c1.218,0,2.205,0.986,2.205,2.205v36.11C633.998,764.792,633.011,765.778,631.794,765.778z"/>
					<path style="fill:#D87355;" d="M609.516,809.252c-1.218,0-2.205-0.986-2.205-2.205v-62.138c0-1.219,0.987-2.205,2.205-2.205
						c1.218,0,2.205,0.986,2.205,2.205v62.138C611.721,808.266,610.734,809.252,609.516,809.252z"/>
				</g>
				<g>
					<path style="fill:#84524D;" d="M1022.031,685.364H446.897c-1.218,0-2.205-0.986-2.205-2.205V577.046
						c0-1.219,0.987-2.205,2.205-2.205h575.134c1.218,0,2.205,0.986,2.205,2.205v106.113
						C1024.235,684.378,1023.248,685.364,1022.031,685.364z M449.102,680.955h570.724V579.251H449.102V680.955z"/>
					<g>
						<circle style="fill:#D3BBA3;" cx="978.118" cy="633.685" r="14.458"/>
						
							<ellipse transform="matrix(0.7071 -0.7071 0.7071 0.7071 -174.403 842.8719)" style="fill:#BC8271;" cx="930.235" cy="631.959" rx="14.458" ry="14.458"/>
						
							<ellipse transform="matrix(0.1602 -0.9871 0.9871 0.1602 117.327 1401.8195)" style="fill:#BC8271;" cx="882.484" cy="631.959" rx="14.458" ry="14.458"/>
					</g>
					<path style="fill:#D87355;" d="M494.912,612.327c-1.218,0-2.205-0.986-2.205-2.205v-19.546c0-1.219,0.987-2.205,2.205-2.205
						s2.205,0.986,2.205,2.205v19.546C497.117,611.341,496.129,612.327,494.912,612.327z"/>
					<path style="fill:#D87355;" d="M472.633,672.366c-1.218,0-2.205-0.986-2.205-2.205v-79.584c0-1.219,0.987-2.205,2.205-2.205
						s2.205,0.986,2.205,2.205v79.584C474.838,671.38,473.851,672.366,472.633,672.366z"/>
					<path style="fill:#D87355;" d="M540.273,638.245c-1.218,0-2.205-0.986-2.205-2.205v-44.667c0-1.219,0.987-2.205,2.205-2.205
						s2.205,0.986,2.205,2.205v44.667C542.478,637.259,541.491,638.245,540.273,638.245z"/>
					<path style="fill:#D87355;" d="M517.995,673.162c-1.218,0-2.205-0.986-2.205-2.205v-79.585c0-1.219,0.987-2.205,2.205-2.205
						c1.218,0,2.205,0.986,2.205,2.205v79.585C520.199,672.176,519.212,673.162,517.995,673.162z"/>
					<path style="fill:#D87355;" d="M584.842,670.774c-1.218,0-2.205-0.986-2.205-2.205v-79.584c0-1.219,0.987-2.205,2.205-2.205
						c1.218,0,2.205,0.986,2.205,2.205v79.584C587.047,669.788,586.06,670.774,584.842,670.774z"/>
					<path style="fill:#D87355;" d="M562.565,670.774c-1.218,0-2.205-0.986-2.205-2.205v-79.584c0-1.219,0.987-2.205,2.205-2.205
						s2.205,0.986,2.205,2.205v79.584C564.769,669.788,563.782,670.774,562.565,670.774z"/>
					<path style="fill:#D87355;" d="M630.204,649.652c-1.218,0-2.205-0.986-2.205-2.205v-57.666c0-1.219,0.987-2.205,2.205-2.205
						s2.205,0.986,2.205,2.205v57.666C632.408,648.666,631.421,649.652,630.204,649.652z"/>
					<path style="fill:#D87355;" d="M607.926,671.571c-1.218,0-2.205-0.986-2.205-2.205V610.12c0-1.219,0.987-2.205,2.205-2.205
						s2.205,0.986,2.205,2.205v59.246C610.131,670.585,609.144,671.571,607.926,671.571z"/>
				</g>
				<g>
					<rect x="451.798" y="1058.108" style="fill:#F2E6DC;" width="571.95" height="50.934"/>
					<circle style="fill:#E6D0BE;" cx="478.327" cy="1084.628" r="9.55"/>
					
						<ellipse transform="matrix(0.9239 -0.3827 0.3827 0.9239 -338.4307 465.7247)" style="fill:#E6D0BE;" cx="1001.465" cy="1083.567" rx="9.55" ry="9.55"/>
				</g>
				<g>
					<rect x="449.674" y="968.966" style="fill:#F2E6DC;" width="571.95" height="50.934"/>
					<circle style="fill:#E6D0BE;" cx="476.202" cy="995.487" r="9.55"/>
					<circle style="fill:#E6D0BE;" cx="999.341" cy="994.426" r="9.55"/>
				</g>
				<g>
					<rect x="448.615" y="881.956" style="fill:#F2E6DC;" width="571.95" height="50.934"/>
					<circle style="fill:#E6D0BE;" cx="475.143" cy="908.476" r="9.55"/>
					
						<ellipse transform="matrix(0.1602 -0.9871 0.9871 0.1602 -57.3236 1747.4536)" style="fill:#E6D0BE;" cx="998.281" cy="907.415" rx="9.55" ry="9.55"/>
				</g>
				<path style="fill:#363E44;" d="M1052.4,2027.003H383.886c-1.218,0-2.205-0.986-2.205-2.205V480.856
					c0-1.219,0.987-2.205,2.205-2.205H1052.4c1.218,0,2.205,0.986,2.205,2.205v1543.942
					C1054.604,2026.017,1053.617,2027.003,1052.4,2027.003z M386.091,2022.594h664.104V483.061H386.091V2022.594z"/>
			</g>
			<g>
				<g>
					<path style="fill:#FFFFFF;" d="M1787.162,839.22c-32.079,0-61.312,10.475-83.351,27.665c0.309-4.218,0.484-8.466,0.484-12.751
						c0-109.902-103.461-198.996-231.089-198.996c-127.626,0-231.089,89.094-231.089,198.996c0,21.347,3.92,41.904,11.146,61.18
						c-9.388-3.177-19.599-4.94-30.295-4.94c-45.778,0-82.889,31.956-82.889,71.378c0,39.421,37.111,71.377,82.889,71.377
						c42.242,0,184.035,0,250.238,0c79.853,0,252.912,0,313.955,0c68.595,0,124.203-47.885,124.203-106.954
						C1911.365,887.105,1855.757,839.22,1787.162,839.22z"/>
				</g>
				<g>
					<path style="fill:#D3BBA3;" d="M1813.497,1058.625h-564.193c-46.921,0-85.094-33.008-85.094-73.582
						c0-40.574,38.173-73.582,85.094-73.582c9.13,0,18.096,1.249,26.714,3.716c-6.485-18.692-9.77-38.098-9.77-57.752
						c0-110.943,104.655-201.201,233.293-201.201s233.293,90.258,233.293,201.201c0,2.674-0.066,5.361-0.199,8.13
						c22.681-16.314,51.198-25.25,80.861-25.25c69.702,0,126.408,48.969,126.408,109.16
						C1939.905,1009.656,1883.199,1058.625,1813.497,1058.625z M1249.304,915.871c-44.489,0-80.685,31.031-80.685,69.172
						s36.195,69.172,80.685,69.172h564.193c67.27,0,121.998-46.99,121.998-104.748c0-57.76-54.729-104.75-121.998-104.75
						c-30.388,0-59.509,9.659-81.995,27.198l-3.919,3.058l0.363-4.957c0.323-4.397,0.479-8.514,0.479-12.589
						c0-108.51-102.677-196.791-228.884-196.791c-126.206,0-228.883,88.281-228.883,196.791c0,20.601,3.702,40.925,11.006,60.406
						l1.631,4.352l-4.402-1.49C1269.433,917.495,1259.478,915.871,1249.304,915.871z"/>
				</g>
			</g>
			<g>
				<g>
					<path style="fill:#363E44;" d="M2084.986,590.611h-476.712c-1.218,0-2.205-0.986-2.205-2.205v-96.681
						c0-1.219,0.987-2.205,2.205-2.205h476.712c1.218,0,2.205,0.986,2.205,2.205v96.681
						C2087.191,589.625,2086.204,590.611,2084.986,590.611z M1610.478,586.201h472.303V493.93h-472.303V586.201z"/>
					<rect x="1637.312" y="504.378" style="fill:#EFBC73;" width="145.192" height="70.069"/>
					<path style="fill:#363E44;" d="M1801.407,576.788c-1.218,0-2.205-0.986-2.205-2.205v-19.712c0-1.219,0.987-2.205,2.205-2.205
						c1.218,0,2.205,0.986,2.205,2.205v19.712C1803.612,575.802,1802.625,576.788,1801.407,576.788z"/>
					<path style="fill:#363E44;" d="M1801.407,537.674c-1.218,0-2.205-0.986-2.205-2.205v-31.091c0-1.219,0.987-2.205,2.205-2.205
						c1.218,0,2.205,0.986,2.205,2.205v31.091C1803.612,536.688,1802.625,537.674,1801.407,537.674z"/>
					<path style="fill:#363E44;" d="M1823.99,576.788c-1.218,0-2.205-0.986-2.205-2.205v-35.169c0-1.219,0.987-2.205,2.205-2.205
						c1.218,0,2.205,0.986,2.205,2.205v35.169C1826.195,575.802,1825.208,576.788,1823.99,576.788z"/>
					<path style="fill:#363E44;" d="M1823.99,519.886c-1.218,0-2.205-0.986-2.205-2.205v-13.304c0-1.219,0.987-2.205,2.205-2.205
						c1.218,0,2.205,0.986,2.205,2.205v13.304C1826.195,518.9,1825.208,519.886,1823.99,519.886z"/>
					<path style="fill:#363E44;" d="M1846.574,576.788c-1.218,0-2.205-0.986-2.205-2.205v-19.712c0-1.219,0.987-2.205,2.205-2.205
						c1.218,0,2.205,0.986,2.205,2.205v19.712C1848.778,575.802,1847.791,576.788,1846.574,576.788z"/>
					<path style="fill:#363E44;" d="M1846.574,530.071c-1.218,0-2.205-0.986-2.205-2.205v-23.489c0-1.219,0.987-2.205,2.205-2.205
						c1.218,0,2.205,0.986,2.205,2.205v23.489C1848.778,529.085,1847.791,530.071,1846.574,530.071z"/>
					<path style="fill:#363E44;" d="M1869.157,576.788c-1.218,0-2.205-0.986-2.205-2.205v-39.114c0-1.219,0.987-2.205,2.205-2.205
						c1.218,0,2.205,0.986,2.205,2.205v39.114C1871.362,575.802,1870.375,576.788,1869.157,576.788z"/>
					<path style="fill:#363E44;" d="M1869.157,522.13c-1.218,0-2.205-0.986-2.205-2.205v-15.548c0-1.219,0.987-2.205,2.205-2.205
						c1.218,0,2.205,0.986,2.205,2.205v15.548C1871.362,521.144,1870.375,522.13,1869.157,522.13z"/>
					<path style="fill:#363E44;" d="M1891.74,576.788c-1.218,0-2.205-0.986-2.205-2.205v-13.451c0-1.219,0.987-2.205,2.205-2.205
						c1.218,0,2.205,0.986,2.205,2.205v13.451C1893.945,575.802,1892.958,576.788,1891.74,576.788z"/>
					<path style="fill:#363E44;" d="M1891.74,537.676c-1.218,0-2.205-0.986-2.205-2.205v-31.093c0-1.219,0.987-2.205,2.205-2.205
						c1.218,0,2.205,0.986,2.205,2.205v31.093C1893.945,536.69,1892.958,537.676,1891.74,537.676z"/>
					<path style="fill:#363E44;" d="M1914.323,576.788c-1.218,0-2.205-0.986-2.205-2.205v-41.663c0-1.219,0.987-2.205,2.205-2.205
						c1.218,0,2.205,0.986,2.205,2.205v41.663C1916.528,575.802,1915.541,576.788,1914.323,576.788z"/>
					<path style="fill:#363E44;" d="M1914.323,519.886c-1.218,0-2.205-0.986-2.205-2.205v-13.304c0-1.219,0.987-2.205,2.205-2.205
						c1.218,0,2.205,0.986,2.205,2.205v13.304C1916.528,518.9,1915.541,519.886,1914.323,519.886z"/>
				</g>
				<g>
					<path style="fill:#363E44;" d="M2084.986,696.414h-329.373c-1.218,0-2.205-0.986-2.205-2.205s0.987-2.205,2.205-2.205h327.168
						v-92.271h-451.766c-1.218,0-2.205-0.986-2.205-2.205c0-1.219,0.987-2.205,2.205-2.205h453.971c1.218,0,2.205,0.986,2.205,2.205
						v96.68C2087.191,695.428,2086.204,696.414,2084.986,696.414z"/>
					<path style="fill:#363E44;" d="M1743.355,696.414h-135.082c-1.218,0-2.205-0.986-2.205-2.205v-96.68
						c0-1.219,0.987-2.205,2.205-2.205h13.691c1.218,0,2.205,0.986,2.205,2.205c0,1.219-0.987,2.205-2.205,2.205h-11.486v92.271
						h132.877c1.218,0,2.205,0.986,2.205,2.205S1744.573,696.414,1743.355,696.414z"/>
					<rect x="1637.312" y="610.182" style="fill:#EFBC73;" width="145.192" height="70.069"/>
					<path style="fill:#363E44;" d="M1801.407,682.591c-1.218,0-2.205-0.986-2.205-2.205v-19.71c0-1.219,0.987-2.205,2.205-2.205
						c1.218,0,2.205,0.986,2.205,2.205v19.71C1803.612,681.605,1802.625,682.591,1801.407,682.591z"/>
					<path style="fill:#363E44;" d="M1801.407,643.479c-1.218,0-2.205-0.986-2.205-2.205v-31.091c0-1.219,0.987-2.205,2.205-2.205
						c1.218,0,2.205,0.986,2.205,2.205v31.091C1803.612,642.493,1802.625,643.479,1801.407,643.479z"/>
					<path style="fill:#363E44;" d="M1823.99,682.591c-1.218,0-2.205-0.986-2.205-2.205v-35.167c0-1.219,0.987-2.205,2.205-2.205
						c1.218,0,2.205,0.986,2.205,2.205v35.167C1826.195,681.605,1825.208,682.591,1823.99,682.591z"/>
					<path style="fill:#363E44;" d="M1823.99,625.69c-1.218,0-2.205-0.986-2.205-2.205v-13.302c0-1.219,0.987-2.205,2.205-2.205
						c1.218,0,2.205,0.986,2.205,2.205v13.302C1826.195,624.704,1825.208,625.69,1823.99,625.69z"/>
					<path style="fill:#363E44;" d="M1846.574,682.591c-1.218,0-2.205-0.986-2.205-2.205v-19.71c0-1.219,0.987-2.205,2.205-2.205
						c1.218,0,2.205,0.986,2.205,2.205v19.71C1848.778,681.605,1847.791,682.591,1846.574,682.591z"/>
					<path style="fill:#363E44;" d="M1846.574,635.874c-1.218,0-2.205-0.986-2.205-2.205v-23.486c0-1.219,0.987-2.205,2.205-2.205
						c1.218,0,2.205,0.986,2.205,2.205v23.486C1848.778,634.888,1847.791,635.874,1846.574,635.874z"/>
					<path style="fill:#363E44;" d="M1869.157,682.591c-1.218,0-2.205-0.986-2.205-2.205v-39.112c0-1.219,0.987-2.205,2.205-2.205
						c1.218,0,2.205,0.986,2.205,2.205v39.112C1871.362,681.605,1870.375,682.591,1869.157,682.591z"/>
					<path style="fill:#363E44;" d="M1869.157,627.933c-1.218,0-2.205-0.986-2.205-2.205v-15.546c0-1.219,0.987-2.205,2.205-2.205
						c1.218,0,2.205,0.986,2.205,2.205v15.546C1871.362,626.947,1870.375,627.933,1869.157,627.933z"/>
					<path style="fill:#363E44;" d="M1891.74,682.591c-1.218,0-2.205-0.986-2.205-2.205v-13.451c0-1.219,0.987-2.205,2.205-2.205
						c1.218,0,2.205,0.986,2.205,2.205v13.451C1893.945,681.605,1892.958,682.591,1891.74,682.591z"/>
					<path style="fill:#363E44;" d="M1891.74,643.479c-1.218,0-2.205-0.986-2.205-2.205v-31.091c0-1.219,0.987-2.205,2.205-2.205
						c1.218,0,2.205,0.986,2.205,2.205v31.091C1893.945,642.493,1892.958,643.479,1891.74,643.479z"/>
					<path style="fill:#363E44;" d="M1914.323,682.591c-1.218,0-2.205-0.986-2.205-2.205v-41.661c0-1.219,0.987-2.205,2.205-2.205
						c1.218,0,2.205,0.986,2.205,2.205v41.661C1916.528,681.605,1915.541,682.591,1914.323,682.591z"/>
					<path style="fill:#363E44;" d="M1914.323,625.69c-1.218,0-2.205-0.986-2.205-2.205v-13.302c0-1.219,0.987-2.205,2.205-2.205
						c1.218,0,2.205,0.986,2.205,2.205v13.302C1916.528,624.704,1915.541,625.69,1914.323,625.69z"/>
				</g>
				<g>
					<path style="fill:#363E44;" d="M2084.986,802.218h-476.712c-1.218,0-2.205-0.986-2.205-2.205v-76.254
						c0-1.219,0.987-2.205,2.205-2.205c1.218,0,2.205,0.986,2.205,2.205v74.049h472.303v-92.269h-228.317
						c-1.218,0-2.205-0.986-2.205-2.205c0-1.219,0.987-2.205,2.205-2.205h230.522c1.218,0,2.205,0.986,2.205,2.205v96.678
						C2087.191,801.231,2086.204,802.218,2084.986,802.218z"/>
					<path style="fill:#363E44;" d="M1608.273,725.964c-1.218,0-2.205-0.986-2.205-2.205v-20.425c0-1.219,0.987-2.205,2.205-2.205
						h223.851c1.218,0,2.205,0.986,2.205,2.205c0,1.219-0.987,2.205-2.205,2.205h-221.646v18.22
						C1610.478,724.978,1609.491,725.964,1608.273,725.964z"/>
					<rect x="1637.312" y="715.987" style="fill:#EFBC73;" width="145.192" height="70.069"/>
					<path style="fill:#363E44;" d="M1801.407,788.394c-1.218,0-2.205-0.986-2.205-2.205v-19.71c0-1.219,0.987-2.205,2.205-2.205
						c1.218,0,2.205,0.986,2.205,2.205v19.71C1803.612,787.408,1802.625,788.394,1801.407,788.394z"/>
					<path style="fill:#363E44;" d="M1801.407,749.282c-1.218,0-2.205-0.986-2.205-2.205v-31.091c0-1.219,0.987-2.205,2.205-2.205
						c1.218,0,2.205,0.986,2.205,2.205v31.091C1803.612,748.296,1802.625,749.282,1801.407,749.282z"/>
					<path style="fill:#363E44;" d="M1823.99,788.394c-1.218,0-2.205-0.986-2.205-2.205v-35.167c0-1.219,0.987-2.205,2.205-2.205
						c1.218,0,2.205,0.986,2.205,2.205v35.167C1826.195,787.408,1825.208,788.394,1823.99,788.394z"/>
					<path style="fill:#363E44;" d="M1823.99,731.495c-1.218,0-2.205-0.986-2.205-2.205v-13.304c0-1.219,0.987-2.205,2.205-2.205
						c1.218,0,2.205,0.986,2.205,2.205v13.304C1826.195,730.509,1825.208,731.495,1823.99,731.495z"/>
					<path style="fill:#363E44;" d="M1846.574,788.394c-1.218,0-2.205-0.986-2.205-2.205v-19.71c0-1.219,0.987-2.205,2.205-2.205
						c1.218,0,2.205,0.986,2.205,2.205v19.71C1848.778,787.408,1847.791,788.394,1846.574,788.394z"/>
					<path style="fill:#363E44;" d="M1846.574,741.677c-1.218,0-2.205-0.986-2.205-2.205v-23.487c0-1.219,0.987-2.205,2.205-2.205
						c1.218,0,2.205,0.986,2.205,2.205v23.487C1848.778,740.691,1847.791,741.677,1846.574,741.677z"/>
					<path style="fill:#363E44;" d="M1869.157,788.394c-1.218,0-2.205-0.986-2.205-2.205v-39.112c0-1.219,0.987-2.205,2.205-2.205
						c1.218,0,2.205,0.986,2.205,2.205v39.112C1871.362,787.408,1870.375,788.394,1869.157,788.394z"/>
					<path style="fill:#363E44;" d="M1869.157,733.739c-1.218,0-2.205-0.986-2.205-2.205v-15.548c0-1.219,0.987-2.205,2.205-2.205
						c1.218,0,2.205,0.986,2.205,2.205v15.548C1871.362,732.753,1870.375,733.739,1869.157,733.739z"/>
					<path style="fill:#363E44;" d="M1891.74,788.394c-1.218,0-2.205-0.986-2.205-2.205v-13.449c0-1.219,0.987-2.205,2.205-2.205
						c1.218,0,2.205,0.986,2.205,2.205v13.449C1893.945,787.408,1892.958,788.394,1891.74,788.394z"/>
					<path style="fill:#363E44;" d="M1891.74,749.282c-1.218,0-2.205-0.986-2.205-2.205v-31.091c0-1.219,0.987-2.205,2.205-2.205
						c1.218,0,2.205,0.986,2.205,2.205v31.091C1893.945,748.296,1892.958,749.282,1891.74,749.282z"/>
					<path style="fill:#363E44;" d="M1914.323,788.394c-1.218,0-2.205-0.986-2.205-2.205v-41.661c0-1.219,0.987-2.205,2.205-2.205
						c1.218,0,2.205,0.986,2.205,2.205v41.661C1916.528,787.408,1915.541,788.394,1914.323,788.394z"/>
					<path style="fill:#363E44;" d="M1914.323,731.495c-1.218,0-2.205-0.986-2.205-2.205v-13.304c0-1.219,0.987-2.205,2.205-2.205
						c1.218,0,2.205,0.986,2.205,2.205v13.304C1916.528,730.509,1915.541,731.495,1914.323,731.495z"/>
				</g>
			</g>
			<g>
				<path style="fill:#D87355;" d="M1475.994,1007.47c-36.048,0-69.408-16.357-91.524-44.876c-0.747-0.963-0.572-2.349,0.391-3.094
					c0.96-0.747,2.348-0.573,3.093,0.39c21.275,27.435,53.365,43.171,88.04,43.171c61.395,0,111.343-49.949,111.343-111.343
					c0-8.783-1.026-17.527-3.049-25.988c-0.283-1.184,0.448-2.373,1.632-2.657c1.185-0.28,2.374,0.448,2.657,1.632
					c2.102,8.798,3.169,17.886,3.169,27.013C1591.747,955.543,1539.821,1007.47,1475.994,1007.47z"/>
				<path style="fill:#D87355;" d="M1364.153,913.658c-1.051,0-1.982-0.754-2.169-1.824c-1.156-6.595-1.743-13.362-1.743-20.117
					c0-63.826,51.926-115.753,115.753-115.753c35.609,0,68.715,16.034,90.831,43.995c0.756,0.954,0.594,2.34-0.361,3.096
					c-0.956,0.756-2.342,0.596-3.097-0.362c-21.275-26.895-53.121-42.32-87.374-42.32c-61.395,0-111.343,49.949-111.343,111.343
					c0,6.498,0.564,13.011,1.676,19.355c0.211,1.199-0.591,2.343-1.79,2.554C1364.407,913.647,1364.279,913.658,1364.153,913.658z"
					/>
				<path style="fill:#D87355;" d="M1475.436,985.416c-19.609,0-38.367-6.022-54.247-17.415c-0.989-0.711-1.215-2.086-0.506-3.077
					c0.708-0.99,2.082-1.221,3.077-0.506c15.126,10.852,32.996,16.588,51.677,16.588c48.933,0,88.744-39.81,88.744-88.744
					c0-6.787-0.77-13.554-2.288-20.11c-0.275-1.186,0.464-2.371,1.65-2.646c1.18-0.28,2.37,0.465,2.645,1.651
					c1.593,6.882,2.402,13.982,2.402,21.105C1568.59,943.627,1526.802,985.416,1475.436,985.416z"/>
				<path style="fill:#D87355;" d="M1385.694,909.339c-1.061,0-1.996-0.766-2.174-1.847c-0.821-4.995-1.238-10.12-1.238-15.229
					c0-51.365,41.788-93.154,93.154-93.154c22.221,0,43.738,7.954,60.588,22.393c0.925,0.794,1.031,2.186,0.239,3.109
					c-0.791,0.928-2.182,1.031-3.109,0.241c-16.051-13.756-36.55-21.333-57.718-21.333c-48.933,0-88.744,39.809-88.744,88.744
					c0,4.87,0.397,9.754,1.18,14.514c0.197,1.201-0.617,2.336-1.818,2.532C1385.933,909.33,1385.813,909.339,1385.694,909.339z"/>
				<path style="fill:#D87355;" d="M1386.148,942.428c-0.532,0-1.055-0.194-1.465-0.558l-29.765-26.458
					c-0.612-0.542-0.872-1.38-0.675-2.177c0.196-0.794,0.817-1.415,1.612-1.611l7.808-1.929c1.178-0.289,2.376,0.428,2.669,1.611
					c0.293,1.182-0.429,2.377-1.612,2.67l-3.741,0.924l23.853,21.202l6.191-26.977l-4.545,0.493
					c-1.214,0.129-2.299-0.745-2.43-1.955c-0.131-1.21,0.744-2.297,1.954-2.429l7.625-0.827c0.716-0.073,1.412,0.194,1.886,0.728
					c0.474,0.532,0.66,1.262,0.501,1.957l-7.717,33.624c-0.174,0.76-0.736,1.369-1.478,1.606
					C1386.599,942.394,1386.373,942.428,1386.148,942.428z"/>
				<path style="fill:#D87355;" d="M1556.575,875.855c-0.511,0-1.013-0.179-1.416-0.515c-0.568-0.476-0.86-1.208-0.774-1.944
					l4.304-37.054c0.093-0.799,0.614-1.486,1.359-1.787c0.742-0.304,1.596-0.179,2.221,0.33l32.283,26.206
					c0.618,0.502,0.917,1.298,0.784,2.082s-0.68,1.436-1.43,1.705l-6.73,2.414c-1.144,0.411-2.409-0.185-2.819-1.331
					c-0.411-1.148,0.185-2.409,1.332-2.821l3.046-1.092l-26.128-21.211l-3.454,29.733l4.215-1.268
					c1.166-0.342,2.394,0.31,2.746,1.477c0.351,1.165-0.31,2.396-1.476,2.747l-7.427,2.235
					C1557.002,875.825,1556.788,875.855,1556.575,875.855z"/>
			</g>
			<path style="fill:#363E44;" d="M1878.374,456.265c-1.218,0-2.205-0.986-2.205-2.205v-61.748l-1208.311-6.591l-2.136,66.205
				c-0.039,1.217-1.008,2.229-2.275,2.132c-1.216-0.039-2.171-1.057-2.133-2.274l2.205-68.349c0.039-1.191,1.014-2.134,2.204-2.134
				c0.004,0,0.008,0,0.012,0l1212.651,6.614c1.213,0.007,2.193,0.993,2.193,2.205v63.94
				C1880.578,455.279,1879.591,456.265,1878.374,456.265z"/>
			<path style="fill:#E6D0BE;" d="M2140.747,969.254c-0.007,0-0.012,0-0.018,0l-160.669-1.316c-1.218-0.011-2.196-1.005-2.187-2.222
				c0.01-1.212,0.995-2.188,2.205-2.188c0.005,0,0.012,0,0.018,0l158.456,1.298l1.448-308.619l-41.108,0.695
				c-1.204-0.064-2.222-0.952-2.242-2.168c-0.021-1.216,0.949-2.22,2.167-2.241l43.361-0.734c0.013,0,0.026,0,0.038,0
				c0.579,0,1.137,0.228,1.549,0.637c0.422,0.416,0.659,0.984,0.656,1.578l-1.469,313.084c-0.003,0.586-0.239,1.146-0.656,1.559
				C2141.883,969.026,2141.326,969.254,2140.747,969.254z"/>
		</g>
		<g>
			<g>
				<g>
					
						<rect x="666.032" y="1099.943" transform="matrix(-1 -1.224647e-16 1.224647e-16 -1 2572.5818 3140.1458)" style="fill:#EFBC73;" width="1240.518" height="940.26"/>
					
						<rect x="892.781" y="951.034" transform="matrix(-1.836970e-16 1 -1 -1.836970e-16 2818.6638 246.0819)" style="fill:#F2E6DC;" width="787.02" height="1162.678"/>
					<path style="fill:#F7F1EB;" d="M1262.94,1978.423c0,12.896,10.455,23.351,23.351,23.351c12.897,0,23.351-10.454,23.351-23.351
						c0-12.896-10.455-23.351-23.351-23.351C1273.395,1955.071,1262.94,1965.526,1262.94,1978.423z"/>
				</g>
				<g>
					<path style="fill:#EFBC73;" d="M666.032,2065.694L666.032,2065.694c0,53.816,43.627,97.445,97.444,97.445h1300.291
						c53.817,0,97.444-43.628,97.444-97.445l0,0H666.032z"/>
					<path style="fill:#F2E6DC;" d="M992.558,2155.244c-43.811,0-79.454-35.643-79.454-79.453c0-1.219,0.987-2.205,2.205-2.205
						s2.205,0.986,2.205,2.205c0,41.379,33.664,75.043,75.045,75.043c1.218,0,2.205,0.986,2.205,2.205
						S993.776,2155.244,992.558,2155.244z"/>
					<path style="fill:#F2E6DC;" d="M1634.449,2132.337h-145.771c-24.047,0-43.612-19.563-43.612-43.612
						c0-1.219,0.987-2.205,2.205-2.205h228.584c1.218,0,2.205,0.986,2.205,2.205
						C1678.06,2112.774,1658.497,2132.337,1634.449,2132.337z M1449.537,2090.93c1.148,20.595,18.265,36.998,39.141,36.998h145.771
						c20.876,0,37.992-16.403,39.14-36.998H1449.537z"/>
				</g>
			</g>
			<g>
				<rect x="703.205" y="1133.294" style="fill:#E6D0BE;" width="1164.145" height="49.606"/>
				<path style="fill:#D3BBA3;" d="M1514.41,1434.215H733.325c-1.218,0-2.205-0.986-2.205-2.205v-223.901
					c0-1.219,0.987-2.205,2.205-2.205h781.085c1.218,0,2.205,0.986,2.205,2.205v223.901
					C1516.615,1433.229,1515.628,1434.215,1514.41,1434.215z M735.53,1429.805h776.675v-219.491H735.53V1429.805z"/>
				<path style="fill:#D3BBA3;" d="M1513.687,1672.016H732.603c-1.218,0-2.205-0.986-2.205-2.205v-214.763
					c0-1.219,0.987-2.205,2.205-2.205h781.084c1.218,0,2.205,0.986,2.205,2.205v214.763
					C1515.892,1671.03,1514.905,1672.016,1513.687,1672.016z M734.808,1667.607h776.674v-210.354H734.808V1667.607z"/>
				<path style="fill:#D3BBA3;" d="M1513.687,1906.304H732.603c-1.218,0-2.205-0.986-2.205-2.205v-213.084
					c0-1.219,0.987-2.205,2.205-2.205h781.084c1.218,0,2.205,0.986,2.205,2.205V1904.1
					C1515.892,1905.318,1514.905,1906.304,1513.687,1906.304z M734.808,1901.895h776.674v-208.674H734.808V1901.895z"/>
				<path style="fill:#D3BBA3;" d="M1842.361,1907.036h-305.735c-1.218,0-2.205-0.986-2.205-2.205v-696.723
					c0-1.219,0.987-2.205,2.205-2.205h305.735c1.218,0,2.205,0.986,2.205,2.205v696.723
					C1844.566,1906.05,1843.579,1907.036,1842.361,1907.036z M1538.831,1902.627h301.325v-692.313h-301.325V1902.627z"/>
			</g>
		</g>
		<g>
			<g>
				<polygon style="fill:#776E42;" points="1861.689,1741.426 1871.997,2005.234 1480.619,2005.234 1468.916,1751.894 
					1468.666,1746.48 				"/>
				<g>
					<polygon style="fill:#84524D;" points="1694.457,1999.621 1572.2,1921.703 1528.199,2042.715 1648.426,2068.876 					"/>
					<path style="fill:#D3BBA3;" d="M1905.375,2067.974h-263.996l17.732-98.024c0,0,111.977-48.248,234.375,23.38
						C1893.485,1993.33,1923.654,2030.208,1905.375,2067.974z"/>
					<path style="fill:#363E44;" d="M1717.763,2044.545c-1.218,0-2.205-0.986-2.205-2.205v-60.109c0-1.219,0.987-2.205,2.205-2.205
						c1.218,0,2.205,0.986,2.205,2.205v60.109C1719.968,2043.559,1718.981,2044.545,1717.763,2044.545z"/>
					<path style="fill:#363E44;" d="M1734.822,2044.545c-1.218,0-2.205-0.986-2.205-2.205v-60.109c0-1.219,0.987-2.205,2.205-2.205
						c1.218,0,2.205,0.986,2.205,2.205v60.109C1737.027,2043.559,1736.04,2044.545,1734.822,2044.545z"/>
					<path style="fill:#8B865C;" d="M1634.367,1900.839l-74.161,167.135c0,0-206.236-43.489-349.679-133.226
						c-50.123-31.357-66.297-96.92-36.442-147.952c0.425-0.727,0.855-1.454,1.289-2.178c25.514-42.647,77.172-61.967,124.775-47.695
						C1376.385,1759.781,1518.579,1810.873,1634.367,1900.839z"/>
				</g>
				<g>
					<polygon style="fill:#84524D;" points="1628.432,1999.621 1750.69,1921.703 1794.69,2042.715 1674.463,2068.876 					"/>
					<path style="fill:#FFFFFF;" d="M1420.333,2067.974h261.177l-17.732-92.617c0,0-96.579-56.181-211.91-12.932
						C1451.869,1962.425,1436.499,1995.289,1420.333,2067.974z"/>
					<path style="fill:#363E44;" d="M1605.127,2044.545c-1.218,0-2.205-0.986-2.205-2.205v-60.109c0-1.219,0.987-2.205,2.205-2.205
						c1.218,0,2.205,0.986,2.205,2.205v60.109C1607.331,2043.559,1606.344,2044.545,1605.127,2044.545z"/>
					<path style="fill:#363E44;" d="M1588.067,2044.545c-1.218,0-2.205-0.986-2.205-2.205v-60.109c0-1.219,0.987-2.205,2.205-2.205
						c1.218,0,2.205,0.986,2.205,2.205v60.109C1590.272,2043.559,1589.285,2044.545,1588.067,2044.545z"/>
					<path style="fill:#8B865C;" d="M1688.522,1900.839l74.16,167.135c0,0,206.236-43.489,349.679-133.226
						c50.123-31.357,66.297-96.92,36.443-147.952c-0.426-0.727-0.855-1.454-1.289-2.178
						c-25.514-42.647-77.172-61.967-124.775-47.695C1946.504,1759.781,1804.31,1810.873,1688.522,1900.839z"/>
				</g>
			</g>
			<g>
				<path style="fill:#D87355;" d="M1382.967,1804.601l-20.714-3.634c-37.098-6.508-60.466-43.503-50.575-79.844
					c9.429-34.644,23.034-77.073,40.797-113.804c17.448-36.08,50.788-61.935,90.129-69.583
					c82.945-16.125,251.529-38.19,425.485,2.072c35.826,8.292,66.409,31.655,83.58,64.172
					c14.745,27.923,32.013,65.47,44.056,106.853c11.415,39.223-12.492,80.016-52.151,89.811l-92.625-20.107L1382.967,1804.601z"/>
				<path style="fill:#84524D;" d="M1333.56,1727.988c-1.522,5.477-2.443,11.443-2.503,17.9
					c-0.268,29.142,18.331,55.158,45.525,65.637l135.797,36.228l29.564-100.821l-139.758-52.945
					C1373.776,1683.224,1341.697,1698.718,1333.56,1727.988z"/>
				<path style="fill:#84524D;" d="M1969.625,1759.814c-1.892,5.36-4.556,10.777-8.209,16.102
					c-16.484,24.034-46.636,34.691-74.927,27.692l-136.858-33.862l38.379-113.849l144.87,36.72
					C1962.329,1700.082,1979.734,1731.165,1969.625,1759.814z"/>
			</g>
			<g>
				<rect x="1484.089" y="1616.277" style="fill:#363E44;" width="352.468" height="211.318"/>
				<rect x="1484.089" y="1833.353" style="fill:#363E44;" width="352.468" height="21.634"/>
				<path style="fill:#40484C;" d="M1679.48,1734.477h-38.314c-1.218,0-2.205-0.986-2.205-2.205v-38.313
					c0-1.219,0.987-2.205,2.205-2.205h38.314c1.218,0,2.205,0.986,2.205,2.205v38.313
					C1681.685,1733.491,1680.698,1734.477,1679.48,1734.477z M1643.371,1730.067h33.904v-33.903h-33.904V1730.067z"/>
				<path style="fill:#40484C;" d="M1821.306,1635.458H1499.34c-1.218,0-2.205-0.986-2.205-2.205c0-1.219,0.987-2.205,2.205-2.205
					h321.965c1.218,0,2.205,0.986,2.205,2.205C1823.51,1634.472,1822.523,1635.458,1821.306,1635.458z"/>
			</g>
			<g>
				<path style="fill:#84524D;" d="M1610.842,1444.557c7.786,10.507,6.848,24.396-2.094,31.022
					c-8.942,6.626-22.503,3.48-30.288-7.027c-7.786-10.507-6.848-24.395,2.094-31.021
					C1589.496,1430.904,1603.056,1434.05,1610.842,1444.557z"/>
				<path style="fill:#84524D;" d="M1706.967,1439.665c-6.679,11.243-4.336,24.965,5.232,30.649
					c9.569,5.684,22.74,1.177,29.418-10.066c6.678-11.243,4.336-24.965-5.233-30.649
					C1726.817,1423.915,1713.646,1428.422,1706.967,1439.665z"/>
				<path style="fill:#363E44;" d="M1718.337,1414.165c-1.732-33.358-30.178-58.995-63.536-57.263l0,0
					c-33.358,1.732-58.995,30.177-57.263,63.535l2.032,39.148l120.799-6.271L1718.337,1414.165z"/>
				<path style="fill:#84524D;" d="M1655.425,1573.244L1655.425,1573.244c-23.351-1.071-41.413-20.869-40.342-44.219l3.923-85.53
					l84.562,3.878l-3.923,85.529C1698.574,1556.253,1678.776,1574.315,1655.425,1573.244z"/>
				<path style="fill:#84524D;" d="M1717.946,1450.927c1.918,37.691-22.531,69.569-54.608,71.202
					c-32.078,1.633-59.637-27.599-61.555-65.29c-1.918-37.691,22.531-59.217,54.608-60.85
					C1688.468,1394.356,1716.027,1413.236,1717.946,1450.927z"/>
				<path style="fill:#363E44;" d="M1660.755,1524.399c-15.197,0-29.705-6.561-41.109-18.657c-0.835-0.885-0.795-2.28,0.092-3.116
					c0.886-0.838,2.28-0.794,3.117,0.093c11.175,11.853,25.519,17.979,40.371,17.206c14.858-0.756,28.5-8.292,38.414-21.217
					c0.742-0.965,2.127-1.146,3.091-0.409c0.967,0.743,1.149,2.125,0.408,3.092c-10.714,13.97-25.519,22.117-41.689,22.94
					C1662.55,1524.375,1661.652,1524.399,1660.755,1524.399z"/>
				<path style="fill:#363E44;" d="M1717.936,1471.434c-0.13,0-0.263-0.011-0.396-0.037c-1.198-0.217-1.993-1.365-1.775-2.562
					c1.055-5.803,1.435-11.791,1.129-17.796c-0.272-5.357-1.088-10.658-2.423-15.752c-0.309-1.178,0.396-2.384,1.574-2.694
					c1.184-0.297,2.384,0.398,2.691,1.574c1.412,5.389,2.274,10.99,2.561,16.648c0.323,6.343-0.078,12.671-1.194,18.808
					C1719.91,1470.689,1718.982,1471.434,1717.936,1471.434z"/>
				<path style="fill:#363E44;" d="M1603.558,1476.83c-0.96,0-1.843-0.631-2.12-1.6c-1.678-5.893-2.69-12.045-3.008-18.28
					c-0.294-5.768,0.013-11.537,0.91-17.141c0.193-1.202,1.317-2.03,2.526-1.828c1.201,0.192,2.021,1.322,1.828,2.526
					c-0.848,5.301-1.137,10.757-0.86,16.22c0.302,5.904,1.259,11.722,2.847,17.294c0.334,1.171-0.346,2.392-1.517,2.726
					C1603.962,1476.804,1603.758,1476.83,1603.558,1476.83z"/>
				<g>
					<path style="fill:#FFFFFF;" d="M1701.593,1445.243c-3.51-0.115-9.935,0.716-13.268,1.792c-3.204,1.034-5.986,2.925-8.97,5.852
						c-4.435,4.128-6.798,8.413-6.798,8.413s6.219,2.291,13.729,1.859c2.605-0.149,4.442-3.73,7.154-4.744
						c3.319-1.241,7.09-0.037,9.433-2.054c5.089-4.38,7.799-9.322,7.799-9.322S1706.852,1445.644,1701.593,1445.243z"/>
					<g>
						<defs>
							<path id="SVGID_1_" d="M1672.558,1461.3c0,0,11.281,4.155,21.807,0.217c10.525-3.938,16.309-14.477,16.309-14.477
								s-11.281-4.155-21.807-0.217C1678.341,1450.761,1672.558,1461.3,1672.558,1461.3z"/>
						</defs>
						<clipPath id="SVGID_00000066487328084243265220000001235569706032950701_">
							<use xlink:href="#SVGID_1_"  style="overflow:visible;"/>
						</clipPath>
						<path style="clip-path:url(#SVGID_00000066487328084243265220000001235569706032950701_);fill:#363E44;" d="
							M1684.194,1469.076c5.45,4.099,13.191,3.004,17.29-2.447c4.099-5.45,3.003-13.191-2.447-17.29
							c-5.45-4.099-13.191-3.003-17.29,2.447C1677.648,1457.237,1678.744,1464.978,1684.194,1469.076z"/>
					</g>
				</g>
				<g>
					<path style="fill:#FFFFFF;" d="M1623.047,1445.243c3.51-0.115,9.935,0.716,13.268,1.792c3.204,1.034,5.986,2.925,8.97,5.852
						c4.435,4.128,6.798,8.413,6.798,8.413s-6.219,2.291-13.729,1.859c-2.605-0.149-4.442-3.73-7.154-4.744
						c-3.319-1.241-7.09-0.037-9.433-2.054c-5.088-4.38-7.799-9.322-7.799-9.322S1617.788,1445.644,1623.047,1445.243z"/>
					<g>
						<defs>
							<path id="SVGID_00000179614075166508043020000009516135525719143307_" d="M1652.083,1461.3c0,0-11.281,4.155-21.807,0.217
								c-10.525-3.938-16.309-14.477-16.309-14.477s11.281-4.155,21.807-0.217C1646.299,1450.761,1652.083,1461.3,1652.083,1461.3z"
								/>
						</defs>
						<clipPath id="SVGID_00000129902939066025836600000016861468173053625219_">
							<use xlink:href="#SVGID_00000179614075166508043020000009516135525719143307_"  style="overflow:visible;"/>
						</clipPath>
						<path style="clip-path:url(#SVGID_00000129902939066025836600000016861468173053625219_);fill:#363E44;" d="
							M1640.446,1469.076c-5.45,4.099-13.191,3.004-17.29-2.447s-3.003-13.191,2.447-17.29c5.45-4.099,13.191-3.003,17.29,2.447
							C1646.992,1457.237,1645.896,1464.978,1640.446,1469.076z"/>
					</g>
				</g>
				<path style="fill:#363E44;" d="M1663.899,1481.289c-0.661,0-1.314-0.297-1.749-0.861c-0.742-0.965-0.561-2.349,0.405-3.092
					c1.267-0.973,1.972-1.908,1.986-2.629c0.01-0.456-0.261-0.881-0.927-1.807c-0.784-1.089-1.759-2.444-2.189-4.522
					c-0.386-1.858-0.227-3.815,0.473-5.818c0.401-1.15,1.661-1.755,2.808-1.354c1.15,0.403,1.756,1.66,1.354,2.81
					c-0.432,1.236-0.538,2.403-0.318,3.467c0.24,1.161,0.802,1.94,1.451,2.842c0.8,1.113,1.796,2.498,1.757,4.468
					c-0.042,2.149-1.29,4.179-3.709,6.04C1664.841,1481.14,1664.368,1481.289,1663.899,1481.289z"/>
				<path style="fill:#363E44;" d="M1654.86,1490.769c-2.491,0-6.213-0.495-9.851-2.846c-2.309-1.492-4.279-3.555-5.695-5.964
					c-0.617-1.051-0.266-2.401,0.784-3.019c1.052-0.62,2.402-0.263,3.019,0.784c1.069,1.819,2.552,3.374,4.287,4.496
					c3.322,2.149,6.76,2.233,8.524,2.099c1.207-0.078,2.275,0.812,2.371,2.026c0.095,1.214-0.812,2.276-2.026,2.371
					C1655.866,1490.748,1655.391,1490.769,1654.86,1490.769z"/>
				<g>
					<path style="fill:#363E44;" d="M1653.509,1386.42c0,0,108.866-107.006,44.62-136.499
						C1642.969,1224.6,1648.598,1365.478,1653.509,1386.42z"/>
					<path style="fill:#363E44;" d="M1653.259,1384.214c0,0,33.894-179.412-36.081-169.368
						C1557.1,1223.47,1637.78,1369.279,1653.259,1384.214z"/>
					<path style="fill:#363E44;" d="M1644.377,1376.245c0,0-34.162-127.768-83.383-77.025
						C1518.736,1342.785,1622.995,1373.895,1644.377,1376.245z"/>
					<path style="fill:#363E44;" d="M1628.013,1371.791c0,0-46.761-21.743-48.469,2.078
						C1578.078,1394.319,1621.971,1375.828,1628.013,1371.791z"/>
				</g>
			</g>
		</g>
	</g>
</g>
</svg>
