<?xml version="1.0" encoding="utf-8"?>
<!-- Generator: Adobe Illustrator 27.5.0, SVG Export Plug-In . SVG Version: 6.00 Build 0)  -->
<svg version="1.1" xmlns="http://www.w3.org/2000/svg" xmlns:xlink="http://www.w3.org/1999/xlink" x="0px" y="0px"
	 viewBox="0 0 750 500" style="enable-background:new 0 0 750 500;" xml:space="preserve">
<g id="Background_Simple">
	<g>
		<path style="fill:#92E3A9;" d="M649.922,229.15c0,0-58.878-110.397-148.116-152.716c-89.237-42.319-196.874-33.119-249.313,13.8
			c-52.438,46.919-38.639,79.118-121.436,162.835c-82.798,83.717-67.158,193.194,68.998,210.674
			c136.156,17.479,137.996-16.56,252.073-9.2c114.077,7.36,207.914,16.56,230.913-48.759
			C706.04,340.466,649.922,229.15,649.922,229.15z"/>
		<path style="opacity:0.7;fill:#FFFFFF;" d="M649.922,229.15c0,0-58.878-110.397-148.116-152.716
			c-89.237-42.319-196.874-33.119-249.313,13.8c-52.438,46.919-38.639,79.118-121.436,162.835
			c-82.798,83.717-67.158,193.194,68.998,210.674c136.156,17.479,137.996-16.56,252.073-9.2
			c114.077,7.36,207.914,16.56,230.913-48.759C706.04,340.466,649.922,229.15,649.922,229.15z"/>
	</g>
</g>
<g id="Calendar">
	<g style="opacity:0.3;">
		
			<rect x="601.877" y="270.201" style="fill:none;stroke:#000000;stroke-linecap:round;stroke-linejoin:round;stroke-miterlimit:10;" width="80.944" height="74.261"/>
		<g>
			<g>
				
					<rect x="607.578" y="300.454" style="fill:none;stroke:#000000;stroke-linecap:round;stroke-linejoin:round;stroke-miterlimit:10;" width="7.541" height="7.541"/>
				
					<rect x="617.911" y="300.454" style="fill:none;stroke:#000000;stroke-linecap:round;stroke-linejoin:round;stroke-miterlimit:10;" width="7.541" height="7.541"/>
				
					<rect x="628.245" y="300.454" style="fill:none;stroke:#000000;stroke-linecap:round;stroke-linejoin:round;stroke-miterlimit:10;" width="7.541" height="7.541"/>
				
					<rect x="638.579" y="300.454" style="fill:none;stroke:#000000;stroke-linecap:round;stroke-linejoin:round;stroke-miterlimit:10;" width="7.541" height="7.541"/>
				
					<rect x="648.912" y="300.454" style="fill:none;stroke:#000000;stroke-linecap:round;stroke-linejoin:round;stroke-miterlimit:10;" width="7.541" height="7.541"/>
				
					<rect x="659.246" y="300.454" style="fill:none;stroke:#000000;stroke-linecap:round;stroke-linejoin:round;stroke-miterlimit:10;" width="7.541" height="7.541"/>
				
					<rect x="669.58" y="300.454" style="fill:none;stroke:#000000;stroke-linecap:round;stroke-linejoin:round;stroke-miterlimit:10;" width="7.541" height="7.541"/>
			</g>
			<g>
				
					<rect x="607.578" y="312.995" style="fill:none;stroke:#000000;stroke-linecap:round;stroke-linejoin:round;stroke-miterlimit:10;" width="7.541" height="7.541"/>
				
					<rect x="617.911" y="312.995" style="fill:none;stroke:#000000;stroke-linecap:round;stroke-linejoin:round;stroke-miterlimit:10;" width="7.541" height="7.541"/>
				
					<rect x="628.245" y="312.995" style="fill:none;stroke:#000000;stroke-linecap:round;stroke-linejoin:round;stroke-miterlimit:10;" width="7.541" height="7.541"/>
				
					<rect x="638.579" y="312.995" style="fill:none;stroke:#000000;stroke-linecap:round;stroke-linejoin:round;stroke-miterlimit:10;" width="7.541" height="7.541"/>
				
					<rect x="648.912" y="312.995" style="fill:none;stroke:#000000;stroke-linecap:round;stroke-linejoin:round;stroke-miterlimit:10;" width="7.541" height="7.541"/>
				
					<rect x="659.246" y="312.995" style="fill:none;stroke:#000000;stroke-linecap:round;stroke-linejoin:round;stroke-miterlimit:10;" width="7.541" height="7.541"/>
				
					<rect x="669.58" y="312.995" style="fill:none;stroke:#000000;stroke-linecap:round;stroke-linejoin:round;stroke-miterlimit:10;" width="7.541" height="7.541"/>
			</g>
			<g>
				
					<rect x="607.578" y="325.536" style="fill:none;stroke:#000000;stroke-linecap:round;stroke-linejoin:round;stroke-miterlimit:10;" width="7.541" height="7.541"/>
				
					<rect x="617.911" y="325.536" style="fill:none;stroke:#000000;stroke-linecap:round;stroke-linejoin:round;stroke-miterlimit:10;" width="7.541" height="7.541"/>
				
					<rect x="628.245" y="325.536" style="fill:none;stroke:#000000;stroke-linecap:round;stroke-linejoin:round;stroke-miterlimit:10;" width="7.541" height="7.541"/>
				
					<rect x="638.579" y="325.536" style="fill:none;stroke:#000000;stroke-linecap:round;stroke-linejoin:round;stroke-miterlimit:10;" width="7.541" height="7.541"/>
				
					<rect x="648.912" y="325.536" style="fill:none;stroke:#000000;stroke-linecap:round;stroke-linejoin:round;stroke-miterlimit:10;" width="7.541" height="7.541"/>
				
					<rect x="659.246" y="325.536" style="fill:none;stroke:#000000;stroke-linecap:round;stroke-linejoin:round;stroke-miterlimit:10;" width="7.541" height="7.541"/>
				
					<rect x="669.58" y="325.536" style="fill:none;stroke:#000000;stroke-linecap:round;stroke-linejoin:round;stroke-miterlimit:10;" width="7.541" height="7.541"/>
			</g>
		</g>
		<g>
			<rect x="615.748" y="260.903" width="4.94" height="12.921"/>
			<rect x="639.879" y="260.903" width="4.94" height="12.921"/>
			<rect x="664.01" y="260.903" width="4.94" height="12.921"/>
		</g>
		
			<rect x="608.506" y="282.564" style="fill:none;stroke:#000000;stroke-linecap:round;stroke-linejoin:round;stroke-miterlimit:10;" width="69.163" height="12.541"/>
	</g>
</g>
<g id="Clock">
	<g style="opacity:0.3;">
		
			<ellipse transform="matrix(0.7071 -0.7071 0.7071 0.7071 80.4222 433.6539)" style="fill:none;stroke:#000000;stroke-linecap:round;stroke-linejoin:round;stroke-miterlimit:10;" cx="563.678" cy="119.749" rx="41.389" ry="41.389"/>
		
			<ellipse transform="matrix(0.7071 -0.7071 0.7071 0.7071 80.4222 433.6539)" style="fill:none;stroke:#000000;stroke-linecap:round;stroke-linejoin:round;stroke-miterlimit:10;" cx="563.678" cy="119.749" rx="35.108" ry="35.108"/>
		<path style="fill:none;stroke:#000000;stroke-linecap:round;stroke-linejoin:round;stroke-miterlimit:10;" d="M567.063,119.749
			c0,1.87-1.516,3.385-3.385,3.385c-1.87,0-3.385-1.515-3.385-3.385c0-1.869,1.516-3.385,3.385-3.385
			C565.547,116.364,567.063,117.879,567.063,119.749z"/>
		
			<line style="fill:none;stroke:#000000;stroke-linecap:round;stroke-linejoin:round;stroke-miterlimit:10;" x1="561.13" y1="122.396" x2="550.505" y2="131.586"/>
		
			<line style="fill:none;stroke:#000000;stroke-linecap:round;stroke-linejoin:round;stroke-miterlimit:10;" x1="567.063" y1="119.749" x2="594.443" y2="119.749"/>
	</g>
</g>
<g id="Picture">
	<g style="opacity:0.3;">
		<path style="fill:none;stroke:#000000;stroke-linecap:round;stroke-linejoin:round;stroke-miterlimit:10;" d="M254.532,391.572
			H140.486V61.04h114.045V391.572z M373.165,61.04H259.12v330.533h114.045V61.04z M491.798,61.04H377.753v330.533h114.045V61.04z"/>
		<path style="fill:none;stroke:#000000;stroke-linecap:round;stroke-linejoin:round;stroke-miterlimit:10;" d="M140.487,149.267
			c4.05,0.99,13.81-4.22,33.66-50.53c6.69-15.6,13.73-27.95,20.58-37.7"/>
		<path style="fill:none;stroke:#000000;stroke-linecap:round;stroke-linejoin:round;stroke-miterlimit:10;" d="M377.757,247.757
			c6.73,8.52,14.08,18.74,22.14,31.27c27.62,42.97,44.35,82.93,54.24,112.54"/>
		<path style="fill:none;stroke:#000000;stroke-linecap:round;stroke-linejoin:round;stroke-miterlimit:10;" d="M306.147,61.037
			c-4.93,19.68-7.55,47.21-0.31,81.6c12.91,61.37,30.09,54.59,67.33,99.46"/>
		<path style="fill:none;stroke:#000000;stroke-linecap:round;stroke-linejoin:round;stroke-miterlimit:10;" d="M140.485,277.787
			c7.02-10.95,14.1-25.97,20.34-46.58c23.51-77.6,79.95-109.74,79.95-37.62c0,72.11-35.13,110.08-36.06,159.9
			c-0.29,15.3,2.26,27.92,5.94,38.08"/>
		<path style="fill:none;stroke:#000000;stroke-linecap:round;stroke-linejoin:round;stroke-miterlimit:10;" d="M325.297,391.567
			c-11.72-53.28-14.52-109.75,0.92-114.9c16.13-5.37,31.89,68.18,40.2,114.9"/>
		<path style="fill:none;stroke:#000000;stroke-linecap:round;stroke-linejoin:round;stroke-miterlimit:10;" d="M435.167,61.037
			c-25.62,52.88-67.92,148.31-40.76,150.58c21.64,1.8,64.55-46.96,97.39-89.16"/>
		
			<ellipse transform="matrix(0.2274 -0.9738 0.9738 0.2274 162.2062 411.3295)" style="fill:none;stroke:#000000;stroke-linecap:round;stroke-linejoin:round;stroke-miterlimit:10;" cx="340.323" cy="103.442" rx="24.299" ry="24.299"/>
		<path style="fill:none;stroke:#000000;stroke-linecap:round;stroke-linejoin:round;stroke-miterlimit:10;" d="M450.061,152.824
			c0,3.03-2.457,5.487-5.487,5.487c-3.03,0-5.487-2.456-5.487-5.487c0-3.03,2.457-5.487,5.487-5.487
			C447.604,147.337,450.061,149.794,450.061,152.824z"/>
		
			<circle style="fill:none;stroke:#000000;stroke-linecap:round;stroke-linejoin:round;stroke-miterlimit:10;" cx="178.46" cy="289.604" r="9.014"/>
		
			<circle style="fill:none;stroke:#000000;stroke-linecap:round;stroke-linejoin:round;stroke-miterlimit:10;" cx="206.679" cy="89.725" r="5.879"/>
		
			<ellipse transform="matrix(0.923 -0.3849 0.3849 0.923 -63.9214 127.3772)" style="fill:none;stroke:#000000;stroke-linecap:round;stroke-linejoin:round;stroke-miterlimit:10;" cx="286.238" cy="223.37" rx="9.406" ry="9.406"/>
		
			<circle style="fill:none;stroke:#000000;stroke-linecap:round;stroke-linejoin:round;stroke-miterlimit:10;" cx="448.885" cy="284.901" r="21.556"/>
	</g>
</g>
<g id="Speech_Bubble_2">
	<g>
		<path style="fill:#FFFFFF;stroke:#263238;stroke-linecap:round;stroke-linejoin:round;stroke-miterlimit:10;" d="M534.397,188.63
			h52.941c6.427,0,11.638,5.21,11.638,11.638v40.169c0,6.428-5.211,11.638-11.638,11.638h-43.752l-20.017,17.48l9.634-17.541
			c-5.866-0.598-10.444-5.553-10.444-11.577v-40.169C522.759,193.841,527.97,188.63,534.397,188.63z"/>
		<g>
			<path style="fill:#263238;" d="M554.255,231v-7.817c1.872-1.506,3.562-3.135,5.069-4.886c1.506-1.75,2.697-3.613,3.573-5.588
				c0.875-1.974,1.313-4.061,1.313-6.259c0-1.588-0.315-2.779-0.947-3.573c-0.631-0.794-1.578-1.191-2.84-1.191
				c-1.099,0-1.975,0.326-2.626,0.977c-0.651,0.652-0.977,1.527-0.977,2.626c0,0.651,0.071,1.221,0.214,1.71
				c0.143,0.489,0.295,1.018,0.458,1.588l-8.366,1.893c-0.285-0.895-0.51-1.78-0.672-2.656c-0.163-0.875-0.245-1.761-0.245-2.657
				c0-3.542,1.069-6.32,3.206-8.336c2.138-2.015,5.201-3.023,9.191-3.023c4.071,0,7.206,1.079,9.404,3.237
				c2.199,2.158,3.298,5.232,3.298,9.222c0,2.525-0.427,4.885-1.282,7.084c-0.854,2.199-2.086,4.266-3.694,6.199
				c-1.609,1.934-3.511,3.756-5.71,5.466V231H554.255z M553.95,243.886v-8.855h9.037v8.855H553.95z"/>
		</g>
	</g>
</g>
<g id="Speech_Bubble_1">
	<g>
		<path style="fill:#FFFFFF;stroke:#263238;stroke-linecap:round;stroke-linejoin:round;stroke-miterlimit:10;" d="M278.703,110.942
			h-71.892c-6.428,0-11.638,5.21-11.638,11.638v40.169c0,6.428,5.21,11.638,11.638,11.638h62.704l20.017,17.48l-9.634-17.541
			c5.866-0.598,10.444-5.553,10.444-11.577V122.58C290.341,116.152,285.131,110.942,278.703,110.942z"/>
		<g>
			<path style="fill:#263238;stroke:#263238;stroke-linecap:round;stroke-linejoin:round;stroke-miterlimit:10;" d="
				M228.514,143.959c0-2.503-2.029-4.532-4.532-4.532s-4.532,2.029-4.532,4.532c0,2.503,2.029,4.532,4.532,4.532
				S228.514,146.462,228.514,143.959z"/>
			<path style="fill:#263238;stroke:#263238;stroke-linecap:round;stroke-linejoin:round;stroke-miterlimit:10;" d="
				M247.289,143.959c0-2.503-2.029-4.532-4.532-4.532c-2.503,0-4.532,2.029-4.532,4.532c0,2.503,2.029,4.532,4.532,4.532
				C245.26,148.491,247.289,146.462,247.289,143.959z"/>
			<path style="fill:#263238;stroke:#263238;stroke-linecap:round;stroke-linejoin:round;stroke-miterlimit:10;" d="
				M266.064,143.959c0-2.503-2.029-4.532-4.532-4.532c-2.503,0-4.532,2.029-4.532,4.532c0,2.503,2.029,4.532,4.532,4.532
				C264.035,148.491,266.064,146.462,266.064,143.959z"/>
		</g>
	</g>
</g>
<g id="Plant">
	<g>
		<g>
			
				<line style="fill:none;stroke:#263238;stroke-linecap:round;stroke-linejoin:round;stroke-miterlimit:10;" x1="79.772" y1="272.255" x2="96.001" y2="427.759"/>
			<g>
				<g>
					
						<line style="fill:none;stroke:#263238;stroke-linecap:round;stroke-linejoin:round;stroke-miterlimit:10;" x1="95.672" y1="424.892" x2="87.405" y2="416.201"/>
					<path style="fill:#92E3A9;stroke:#263238;stroke-linecap:round;stroke-linejoin:round;stroke-miterlimit:10;" d="
						M90.132,419.042c0,0,0.257-4.194-3.573-7.615c-2.304-2.058-14.431-7.159-15.581-2.888
						C69.727,413.184,82.139,422.307,90.132,419.042z"/>
					
						<line style="fill:none;stroke:#263238;stroke-linecap:round;stroke-linejoin:round;stroke-miterlimit:10;" x1="90.132" y1="419.042" x2="78.588" y2="411.848"/>
				</g>
				<g>
					
						<line style="fill:none;stroke:#263238;stroke-linecap:round;stroke-linejoin:round;stroke-miterlimit:10;" x1="90.062" y1="370.879" x2="81.91" y2="363.545"/>
					<path style="fill:#92E3A9;stroke:#263238;stroke-linecap:round;stroke-linejoin:round;stroke-miterlimit:10;" d="
						M84.637,366.386c0,0,0.257-4.194-3.573-7.615c-2.304-2.058-14.431-7.159-15.581-2.888
						C64.231,360.528,76.644,369.651,84.637,366.386z"/>
					
						<line style="fill:none;stroke:#263238;stroke-linecap:round;stroke-linejoin:round;stroke-miterlimit:10;" x1="84.637" y1="366.386" x2="73.093" y2="359.192"/>
				</g>
				<g>
					
						<line style="fill:none;stroke:#263238;stroke-linecap:round;stroke-linejoin:round;stroke-miterlimit:10;" x1="92.334" y1="393.825" x2="84.162" y2="385.124"/>
					<path style="fill:#92E3A9;stroke:#263238;stroke-linecap:round;stroke-linejoin:round;stroke-miterlimit:10;" d="
						M86.889,387.964c0,0,0.257-4.194-3.573-7.615c-2.304-2.058-14.431-7.159-15.581-2.888
						C66.484,382.107,78.896,391.229,86.889,387.964z"/>
					
						<line style="fill:none;stroke:#263238;stroke-linecap:round;stroke-linejoin:round;stroke-miterlimit:10;" x1="86.889" y1="387.964" x2="75.345" y2="380.77"/>
				</g>
				<g>
					
						<line style="fill:none;stroke:#263238;stroke-linecap:round;stroke-linejoin:round;stroke-miterlimit:10;" x1="86.429" y1="336.827" x2="78.252" y2="328.492"/>
					<path style="fill:#92E3A9;stroke:#263238;stroke-linecap:round;stroke-linejoin:round;stroke-miterlimit:10;" d="
						M80.979,331.333c0,0,0.257-4.194-3.573-7.614c-2.304-2.058-14.431-7.159-15.582-2.888
						C60.573,325.475,72.985,334.598,80.979,331.333z"/>
					
						<line style="fill:none;stroke:#263238;stroke-linecap:round;stroke-linejoin:round;stroke-miterlimit:10;" x1="80.979" y1="331.333" x2="69.435" y2="324.139"/>
				</g>
				<g>
					
						<line style="fill:none;stroke:#263238;stroke-linecap:round;stroke-linejoin:round;stroke-miterlimit:10;" x1="82.492" y1="299.341" x2="74.578" y2="293.286"/>
					<path style="fill:#92E3A9;stroke:#263238;stroke-linecap:round;stroke-linejoin:round;stroke-miterlimit:10;" d="
						M77.305,296.127c0,0,0.257-4.194-3.573-7.614c-2.304-2.058-14.431-7.159-15.582-2.888
						C56.899,290.269,69.311,299.392,77.305,296.127z"/>
					
						<line style="fill:none;stroke:#263238;stroke-linecap:round;stroke-linejoin:round;stroke-miterlimit:10;" x1="77.305" y1="296.127" x2="65.76" y2="288.933"/>
				</g>
				<g>
					
						<line style="fill:none;stroke:#263238;stroke-linecap:round;stroke-linejoin:round;stroke-miterlimit:10;" x1="94.873" y1="412.915" x2="101.699" y2="401.784"/>
					<path style="fill:#92E3A9;stroke:#263238;stroke-linecap:round;stroke-linejoin:round;stroke-miterlimit:10;" d="
						M99.617,405.127c0,0-1.117-4.051,1.924-8.188c1.83-2.489,12.641-9.984,14.649-6.044
						C118.373,395.182,108.112,406.671,99.617,405.127z"/>
					
						<line style="fill:none;stroke:#263238;stroke-linecap:round;stroke-linejoin:round;stroke-miterlimit:10;" x1="99.617" y1="405.127" x2="107.739" y2="397.505"/>
				</g>
				<g>
					
						<line style="fill:none;stroke:#263238;stroke-linecap:round;stroke-linejoin:round;stroke-miterlimit:10;" x1="88.947" y1="356.13" x2="95.773" y2="345"/>
					<path style="fill:#92E3A9;stroke:#263238;stroke-linecap:round;stroke-linejoin:round;stroke-miterlimit:10;" d="
						M93.69,348.342c0,0-1.117-4.051,1.924-8.188c1.83-2.49,10.288-8.724,12.296-4.783
						C110.094,339.658,102.186,349.887,93.69,348.342z"/>
					
						<line style="fill:none;stroke:#263238;stroke-linecap:round;stroke-linejoin:round;stroke-miterlimit:10;" x1="93.69" y1="348.342" x2="104.086" y2="338.407"/>
				</g>
				<g>
					
						<line style="fill:none;stroke:#263238;stroke-linecap:round;stroke-linejoin:round;stroke-miterlimit:10;" x1="86.343" y1="331.176" x2="93.168" y2="320.045"/>
					<path style="fill:#92E3A9;stroke:#263238;stroke-linecap:round;stroke-linejoin:round;stroke-miterlimit:10;" d="
						M91.086,323.388c0,0-1.117-4.051,1.924-8.188c1.829-2.489,12.641-9.985,14.649-6.043
						C109.843,313.443,99.582,324.932,91.086,323.388z"/>
					
						<line style="fill:none;stroke:#263238;stroke-linecap:round;stroke-linejoin:round;stroke-miterlimit:10;" x1="91.086" y1="323.388" x2="101.482" y2="313.452"/>
				</g>
				<g>
					
						<line style="fill:none;stroke:#263238;stroke-linecap:round;stroke-linejoin:round;stroke-miterlimit:10;" x1="82.525" y1="294.592" x2="89.35" y2="283.461"/>
					<path style="fill:#92E3A9;stroke:#263238;stroke-linecap:round;stroke-linejoin:round;stroke-miterlimit:10;" d="
						M87.268,286.804c0,0-1.117-4.051,1.924-8.188c1.829-2.489,12.641-9.984,14.649-6.043
						C106.025,276.859,95.764,288.349,87.268,286.804z"/>
					
						<line style="fill:none;stroke:#263238;stroke-linecap:round;stroke-linejoin:round;stroke-miterlimit:10;" x1="87.268" y1="286.804" x2="97.664" y2="276.868"/>
					<path style="fill:#92E3A9;stroke:#263238;stroke-linecap:round;stroke-linejoin:round;stroke-miterlimit:10;" d="
						M79.605,271.202c0,0-1.117-4.051,1.924-8.188c1.829-2.489,12.641-9.985,14.649-6.043
						C98.362,261.257,88.101,272.746,79.605,271.202z"/>
					
						<line style="fill:none;stroke:#263238;stroke-linecap:round;stroke-linejoin:round;stroke-miterlimit:10;" x1="79.605" y1="271.202" x2="90.001" y2="261.266"/>
					<path style="fill:#92E3A9;stroke:#263238;stroke-linecap:round;stroke-linejoin:round;stroke-miterlimit:10;" d="
						M80.208,271.631c0,0-4.145,0.686-7.941-2.772c-2.284-2.081-8.604-13.619-4.474-15.202
						C72.285,251.934,82.634,263.344,80.208,271.631z"/>
					
						<line style="fill:none;stroke:#263238;stroke-linecap:round;stroke-linejoin:round;stroke-miterlimit:10;" x1="80.208" y1="271.631" x2="71.417" y2="260.251"/>
				</g>
			</g>
		</g>
		
			<line style="fill:none;stroke:#263238;stroke-linecap:round;stroke-linejoin:round;stroke-miterlimit:10;" x1="109.435" y1="221.119" x2="109.435" y2="428.168"/>
		<g>
			
				<line style="fill:none;stroke:#263238;stroke-linecap:round;stroke-linejoin:round;stroke-miterlimit:10;" x1="131.999" y1="298.385" x2="118.426" y2="427.516"/>
			<g>
				<g>
					
						<line style="fill:none;stroke:#263238;stroke-linecap:round;stroke-linejoin:round;stroke-miterlimit:10;" x1="122.031" y1="395.194" x2="115.27" y2="389.546"/>
					<path style="fill:#92E3A9;stroke:#263238;stroke-linecap:round;stroke-linejoin:round;stroke-miterlimit:10;" d="
						M117.378,391.5c0,0,1.115-4.051-1.928-8.187c-1.831-2.488-12.647-9.977-14.653-6.035
						C98.616,381.567,108.883,393.05,117.378,391.5z"/>
					
						<line style="fill:none;stroke:#263238;stroke-linecap:round;stroke-linejoin:round;stroke-miterlimit:10;" x1="117.378" y1="391.5" x2="107.562" y2="382.083"/>
				</g>
				<g>
					
						<line style="fill:none;stroke:#263238;stroke-linecap:round;stroke-linejoin:round;stroke-miterlimit:10;" x1="119.513" y1="419.036" x2="113.055" y2="409.739"/>
					<path style="fill:#92E3A9;stroke:#263238;stroke-linecap:round;stroke-linejoin:round;stroke-miterlimit:10;" d="
						M115.139,413.081c0,0,1.115-4.051-1.929-8.187c-1.831-2.488-12.647-9.977-14.653-6.035
						C96.377,403.147,106.644,414.63,115.139,413.081z"/>
					
						<line style="fill:none;stroke:#263238;stroke-linecap:round;stroke-linejoin:round;stroke-miterlimit:10;" x1="115.139" y1="413.081" x2="105.323" y2="403.664"/>
				</g>
				<g>
					
						<line style="fill:none;stroke:#263238;stroke-linecap:round;stroke-linejoin:round;stroke-miterlimit:10;" x1="125.455" y1="360.619" x2="118.932" y2="353.104"/>
					<path style="fill:#92E3A9;stroke:#263238;stroke-linecap:round;stroke-linejoin:round;stroke-miterlimit:10;" d="
						M121.016,356.446c0,0,1.115-4.051-1.928-8.187c-1.831-2.488-12.647-9.977-14.653-6.035
						C102.253,346.512,112.521,357.995,121.016,356.446z"/>
					
						<line style="fill:none;stroke:#263238;stroke-linecap:round;stroke-linejoin:round;stroke-miterlimit:10;" x1="121.016" y1="356.446" x2="111.2" y2="347.029"/>
				</g>
				<g>
					
						<line style="fill:none;stroke:#263238;stroke-linecap:round;stroke-linejoin:round;stroke-miterlimit:10;" x1="128.878" y1="327.669" x2="122.585" y2="317.896"/>
					<path style="fill:#92E3A9;stroke:#263238;stroke-linecap:round;stroke-linejoin:round;stroke-miterlimit:10;" d="
						M124.669,321.238c0,0,1.115-4.051-1.929-8.187c-1.831-2.488-12.647-9.977-14.653-6.035
						C105.907,311.304,116.174,322.787,124.669,321.238z"/>
					
						<line style="fill:none;stroke:#263238;stroke-linecap:round;stroke-linejoin:round;stroke-miterlimit:10;" x1="124.669" y1="321.238" x2="114.853" y2="311.821"/>
				</g>
				<g>
					
						<line style="fill:none;stroke:#263238;stroke-linecap:round;stroke-linejoin:round;stroke-miterlimit:10;" x1="123.707" y1="382.352" x2="132.678" y2="372.866"/>
					<path style="fill:#92E3A9;stroke:#263238;stroke-linecap:round;stroke-linejoin:round;stroke-miterlimit:10;" d="
						M129.953,375.708c0,0-0.259-4.194,3.568-7.616c2.303-2.059,14.426-7.168,15.58-2.897
						C150.355,369.838,137.948,378.968,129.953,375.708z"/>
					
						<line style="fill:none;stroke:#263238;stroke-linecap:round;stroke-linejoin:round;stroke-miterlimit:10;" x1="129.953" y1="375.708" x2="142.171" y2="368.125"/>
				</g>
				<g>
					
						<line style="fill:none;stroke:#263238;stroke-linecap:round;stroke-linejoin:round;stroke-miterlimit:10;" x1="126.297" y1="357.396" x2="135.268" y2="347.909"/>
					<path style="fill:#92E3A9;stroke:#263238;stroke-linecap:round;stroke-linejoin:round;stroke-miterlimit:10;" d="
						M132.542,350.752c0,0-0.259-4.194,3.568-7.617c2.303-2.059,14.426-7.168,15.58-2.898
						C152.945,344.882,140.538,354.012,132.542,350.752z"/>
					
						<line style="fill:none;stroke:#263238;stroke-linecap:round;stroke-linejoin:round;stroke-miterlimit:10;" x1="132.542" y1="350.752" x2="144.76" y2="343.169"/>
				</g>
				<g>
					
						<line style="fill:none;stroke:#263238;stroke-linecap:round;stroke-linejoin:round;stroke-miterlimit:10;" x1="129.99" y1="318.94" x2="139.064" y2="311.323"/>
					<path style="fill:#92E3A9;stroke:#263238;stroke-linecap:round;stroke-linejoin:round;stroke-miterlimit:10;" d="
						M136.339,314.166c0,0-0.259-4.194,3.568-7.617c2.303-2.059,14.426-7.168,15.58-2.898
						C156.741,308.296,144.334,317.427,136.339,314.166z"/>
					
						<line style="fill:#92E3A9;stroke:#263238;stroke-linecap:round;stroke-linejoin:round;stroke-miterlimit:10;" x1="136.339" y1="314.166" x2="148.557" y2="306.583"/>
					<path style="fill:#92E3A9;stroke:#263238;stroke-linecap:round;stroke-linejoin:round;stroke-miterlimit:10;" d="
						M132.052,297.32c0,0-0.259-4.194,3.568-7.617c2.303-2.059,14.426-7.168,15.58-2.897
						C152.454,291.45,140.048,300.581,132.052,297.32z"/>
					
						<line style="fill:none;stroke:#263238;stroke-linecap:round;stroke-linejoin:round;stroke-miterlimit:10;" x1="132.052" y1="297.32" x2="144.271" y2="289.738"/>
					<path style="fill:#92E3A9;stroke:#263238;stroke-linecap:round;stroke-linejoin:round;stroke-miterlimit:10;" d="
						M132.553,297.864c0,0-4.198-0.182-7.2-4.347c-1.806-2.506-5.616-15.099-1.248-15.798
						C128.856,276.958,136.634,290.254,132.553,297.864z"/>
					
						<line style="fill:none;stroke:#263238;stroke-linecap:round;stroke-linejoin:round;stroke-miterlimit:10;" x1="132.553" y1="297.864" x2="126.294" y2="284.918"/>
				</g>
			</g>
		</g>
		<g>
			<g>
				
					<line style="fill:none;stroke:#263238;stroke-linecap:round;stroke-linejoin:round;stroke-miterlimit:10;" x1="109.108" y1="424.549" x2="101.682" y2="414.629"/>
				<path style="fill:#92E3A9;stroke:#263238;stroke-linecap:round;stroke-linejoin:round;stroke-miterlimit:10;" d="M104.1,417.737
					c0,0,0.691-4.145-2.763-7.944c-2.078-2.286-13.61-8.618-15.197-4.49C84.412,409.793,95.81,420.155,104.1,417.737z"/>
				
					<line style="fill:none;stroke:#263238;stroke-linecap:round;stroke-linejoin:round;stroke-miterlimit:10;" x1="104.1" y1="417.737" x2="93.364" y2="409.384"/>
			</g>
			<g>
				
					<line style="fill:none;stroke:#263238;stroke-linecap:round;stroke-linejoin:round;stroke-miterlimit:10;" x1="109.366" y1="376.694" x2="101.682" y2="369.536"/>
				<path style="fill:#92E3A9;stroke:#263238;stroke-linecap:round;stroke-linejoin:round;stroke-miterlimit:10;" d="M104.1,372.644
					c0,0,0.691-4.145-2.763-7.944c-2.078-2.286-13.61-8.618-15.197-4.49C84.412,364.7,95.81,375.062,104.1,372.644z"/>
				
					<line style="fill:none;stroke:#263238;stroke-linecap:round;stroke-linejoin:round;stroke-miterlimit:10;" x1="104.1" y1="372.644" x2="93.364" y2="364.291"/>
			</g>
			<g>
				
					<line style="fill:none;stroke:#263238;stroke-linecap:round;stroke-linejoin:round;stroke-miterlimit:10;" x1="109.626" y1="326.956" x2="101.682" y2="316.594"/>
				<path style="fill:#92E3A9;stroke:#263238;stroke-linecap:round;stroke-linejoin:round;stroke-miterlimit:10;" d="M104.1,319.703
					c0,0,0.691-4.145-2.763-7.944c-2.078-2.286-13.61-8.618-15.197-4.49C84.412,311.759,95.81,322.121,104.1,319.703z"/>
				
					<line style="fill:none;stroke:#263238;stroke-linecap:round;stroke-linejoin:round;stroke-miterlimit:10;" x1="104.1" y1="319.703" x2="93.364" y2="311.349"/>
			</g>
			<g>
				
					<line style="fill:none;stroke:#263238;stroke-linecap:round;stroke-linejoin:round;stroke-miterlimit:10;" x1="109.108" y1="288.044" x2="101.682" y2="281.351"/>
				<path style="fill:#92E3A9;stroke:#263238;stroke-linecap:round;stroke-linejoin:round;stroke-miterlimit:10;" d="M104.1,284.46
					c0,0,0.691-4.145-2.763-7.944c-2.078-2.286-13.61-8.619-15.197-4.49C84.412,276.515,95.81,286.877,104.1,284.46z"/>
				
					<line style="fill:none;stroke:#263238;stroke-linecap:round;stroke-linejoin:round;stroke-miterlimit:10;" x1="104.1" y1="284.46" x2="93.364" y2="276.106"/>
			</g>
			<g>
				
					<line style="fill:none;stroke:#263238;stroke-linecap:round;stroke-linejoin:round;stroke-miterlimit:10;" x1="109.536" y1="252.784" x2="101.834" y2="247.136"/>
				<path style="fill:#92E3A9;stroke:#263238;stroke-linecap:round;stroke-linejoin:round;stroke-miterlimit:10;" d="M104.1,249.062
					c0,0,0.691-4.145-2.763-7.944c-2.078-2.286-13.61-8.618-15.197-4.49C84.412,241.118,95.81,251.48,104.1,249.062z"/>
				
					<line style="fill:none;stroke:#263238;stroke-linecap:round;stroke-linejoin:round;stroke-miterlimit:10;" x1="104.1" y1="249.062" x2="93.364" y2="240.709"/>
			</g>
			<g>
				
					<line style="fill:none;stroke:#263238;stroke-linecap:round;stroke-linejoin:round;stroke-miterlimit:10;" x1="109.451" y1="367.043" x2="117.395" y2="356.681"/>
				<path style="fill:#92E3A9;stroke:#263238;stroke-linecap:round;stroke-linejoin:round;stroke-miterlimit:10;" d="
					M114.977,359.789c0,0-0.691-4.145,2.763-7.944c2.078-2.286,13.61-8.619,15.197-4.49
					C134.665,351.845,123.266,362.207,114.977,359.789z"/>
				
					<line style="fill:none;stroke:#263238;stroke-linecap:round;stroke-linejoin:round;stroke-miterlimit:10;" x1="114.977" y1="359.789" x2="126.348" y2="350.986"/>
			</g>
			<g>
				
					<line style="fill:none;stroke:#263238;stroke-linecap:round;stroke-linejoin:round;stroke-miterlimit:10;" x1="109.451" y1="331.646" x2="117.395" y2="321.284"/>
				<path style="fill:#92E3A9;stroke:#263238;stroke-linecap:round;stroke-linejoin:round;stroke-miterlimit:10;" d="
					M114.977,324.392c0,0-0.691-4.145,2.763-7.944c2.078-2.286,13.61-8.619,15.197-4.49
					C134.665,316.448,123.266,326.81,114.977,324.392z"/>
				
					<line style="fill:none;stroke:#263238;stroke-linecap:round;stroke-linejoin:round;stroke-miterlimit:10;" x1="114.977" y1="324.392" x2="126.348" y2="315.589"/>
			</g>
			<g>
				
					<line style="fill:none;stroke:#263238;stroke-linecap:round;stroke-linejoin:round;stroke-miterlimit:10;" x1="109.451" y1="284.86" x2="117.395" y2="274.498"/>
				<path style="fill:#92E3A9;stroke:#263238;stroke-linecap:round;stroke-linejoin:round;stroke-miterlimit:10;" d="
					M114.977,277.606c0,0-0.691-4.145,2.763-7.944c2.078-2.286,13.61-8.619,15.197-4.491
					C134.665,269.663,123.266,280.024,114.977,277.606z"/>
				
					<line style="fill:none;stroke:#263238;stroke-linecap:round;stroke-linejoin:round;stroke-miterlimit:10;" x1="114.977" y1="277.606" x2="126.348" y2="268.803"/>
			</g>
			<g>
				
					<line style="fill:none;stroke:#263238;stroke-linecap:round;stroke-linejoin:round;stroke-miterlimit:10;" x1="109.793" y1="244.483" x2="117.581" y2="238.406"/>
				<path style="fill:#92E3A9;stroke:#263238;stroke-linecap:round;stroke-linejoin:round;stroke-miterlimit:10;" d="
					M114.977,240.824c0,0-0.691-4.145,2.763-7.944c2.078-2.286,13.61-8.618,15.197-4.49
					C134.665,232.88,123.266,243.242,114.977,240.824z"/>
				
					<line style="fill:none;stroke:#263238;stroke-linecap:round;stroke-linejoin:round;stroke-miterlimit:10;" x1="114.977" y1="240.824" x2="126.348" y2="232.021"/>
				<path style="fill:#92E3A9;stroke:#263238;stroke-linecap:round;stroke-linejoin:round;stroke-miterlimit:10;" d="
					M108.975,224.511c0,0-0.691-4.145,2.763-7.944c2.078-2.286,13.609-8.618,15.197-4.49
					C128.662,216.567,117.264,226.929,108.975,224.511z"/>
				
					<line style="fill:none;stroke:#263238;stroke-linecap:round;stroke-linejoin:round;stroke-miterlimit:10;" x1="108.975" y1="224.511" x2="120.345" y2="215.708"/>
				<path style="fill:#92E3A9;stroke:#263238;stroke-linecap:round;stroke-linejoin:round;stroke-miterlimit:10;" d="
					M109.529,224.999c0,0-4.194,0.252-7.611-3.581c-2.055-2.306-7.144-14.438-2.871-15.584
					C103.694,204.587,112.803,217.009,109.529,224.999z"/>
				
					<line style="fill:none;stroke:#263238;stroke-linecap:round;stroke-linejoin:round;stroke-miterlimit:10;" x1="109.529" y1="224.999" x2="101.967" y2="212.769"/>
			</g>
		</g>
	</g>
</g>
<g id="Character1">
	<g>
		<path style="fill:#263238;stroke:#263238;stroke-linecap:round;stroke-linejoin:round;stroke-miterlimit:10;" d="M386.141,428.167
			l-15.492-62.723l-119.636,0.852c-6.249,10.524-19.605,46.183-25.361,61.872H386.141z"/>
		<g>
			<path style="fill:#FFFFFF;stroke:#263238;stroke-linecap:round;stroke-linejoin:round;stroke-miterlimit:10;" d="
				M463.213,334.259l9.159,1.57c0,0,18.842-1.309,20.412-1.309c1.57,0,12.823,9.159,12.823,9.159l-19.104-0.262
				c0,0-13.608,3.925-18.319,3.925c-4.71,0-10.468-5.496-10.468-5.496L463.213,334.259z"/>
			<path style="fill:#FFFFFF;stroke:#263238;stroke-linecap:round;stroke-linejoin:round;stroke-miterlimit:10;" d="
				M466.877,340.277c0,0,17.01,0.523,18.842,0.262c1.832-0.262,5.757-2.617,5.757-0.262c0,2.355-2.617,1.57-4.972,3.14
				c-2.355,1.57-4.449,2.355-4.449,2.355s-3.664,1.047-6.804,1.57c-3.14,0.523-3.925,0.262-7.066,0
				c-3.14-0.262-5.234-1.832-5.234-1.832"/>
		</g>
		<path style="fill:#858585;stroke:#263238;stroke-linecap:round;stroke-linejoin:round;stroke-miterlimit:10;" d="M419.722,279.112
			l-12.979-26.92c0,0,0.549-30.193,0-34.585c-0.549-4.392-1.098-8.509-9.607-10.979c-8.509-2.47-58.74,1.647-58.74,1.647
			s-13.372,1.315-25.214,3.403c-11.842,2.087-37.968,2.247-39.341,6.364c-1.372,4.117-7.502,98.015-7.502,98.015l-24.561,55.262
			c0,0,23.057,18.939,70.817,16.195c47.76-2.745,64.504-17.567,64.504-17.567l-13.45-48.035c0,0,22.233-19.763,22.782-25.802
			s0.823-10.705,0.823-10.705s13.724,21.135,16.469,22.782c2.745,1.647,54.497,37.922,54.497,37.922l7.136-12.626l-43.792-50.548
			L419.722,279.112"/>
		
			<line style="fill:none;stroke:#263238;stroke-linecap:round;stroke-linejoin:round;stroke-miterlimit:10;" x1="387.254" y1="285.405" x2="391.889" y2="241.24"/>
		<path style="fill:none;stroke:#263238;stroke-linecap:round;stroke-linejoin:round;stroke-miterlimit:10;" d="M390.742,255.579
			c0,0,8.603-7.743,12.045-17.494"/>
		<path style="fill:none;stroke:#263238;stroke-linecap:round;stroke-linejoin:round;stroke-miterlimit:10;" d="M399.281,257.939
			c1.675-0.487,3.173-1.005,4.079-1.5"/>
		<path style="fill:none;stroke:#263238;stroke-linecap:round;stroke-linejoin:round;stroke-miterlimit:10;" d="M389.881,260.168
			c0,0,2.994-0.582,6.25-1.388"/>
		<path style="fill:#92E3A9;stroke:#263238;stroke-linecap:round;stroke-linejoin:round;stroke-miterlimit:10;" d="M327.142,207.177
			l-9.882,35.408l10.705,9.058l-11.803,11.528c0,0,4.392,17.293,10.705,30.742c6.313,13.45,10.43,19.488,10.43,19.488
			s25.527-12.077,32.115-22.782c6.588-10.705,15.371-27.448,15.371-27.448l-7.686-7.686l11.254-6.039c0,0-3.704-15.84-6.039-25.802
			c-2.334-9.961-6.039-16.743-6.039-16.743L327.142,207.177z"/>
		<path style="fill:#FFFFFF;stroke:#263238;stroke-linecap:round;stroke-linejoin:round;stroke-miterlimit:10;" d="M335.381,211.756
			c0,0-0.236,31.628-1.18,42.722c-0.944,11.093,0,27.616,1.416,34.697c1.416,7.081,4.249,17.702,4.249,17.702
			s19.355-15.814,21.951-22.423c2.596-6.609,7.317-32.809,7.317-32.809l4.249-30.212L335.381,211.756z"/>
		<polygon style="fill:#FFFFFF;stroke:#263238;stroke-linecap:round;stroke-linejoin:round;stroke-miterlimit:10;" points="
			336.325,206.091 334.2,250.465 353.083,238.192 368.897,255.658 372.91,219.309 		"/>
		<path style="fill:#FFFFFF;stroke:#263238;stroke-linecap:round;stroke-linejoin:round;stroke-miterlimit:10;" d="M343.17,221.197
			l7.789,35.877l14.398-29.268C365.357,227.806,348.345,227.132,343.17,221.197z"/>
		<g>
			<path style="fill:#263238;stroke:#263238;stroke-linecap:round;stroke-linejoin:round;stroke-miterlimit:10;" d="
				M327.354,184.477c0,0-4.114-6.4-6.629-12.114c-2.514-5.714-2.057-8,0.457-13.943c2.514-5.943,12.8-23.085,19.657-26.057
				c6.857-2.971,12.571-3.2,12.571-3.2s25.371-0.686,37.028,11.657c11.657,12.343,11.885,33.371,9.143,38.857
				c-2.743,5.486-7.543,8-9.828,8.686c-2.286,0.686-4.091,1.33-4.091,1.33s-2.766,0.042-4.595,0.042
				c-1.828,0-11.428-5.486-19.885-12.571c-8.457-7.086-11.2-10.057-11.2-10.057s-9.828,7.086-13.257,10.286
				c-3.428,3.2-4.343,5.257-4.343,5.257l-1.333,5.15L327.354,184.477z"/>
			<path style="fill:#263238;stroke:#263238;stroke-linecap:round;stroke-linejoin:round;stroke-miterlimit:10;" d="
				M327.125,189.049c0,0-8.457-1.371-13.257,3.2c-4.8,4.571-5.257,16-0.686,19.428c4.571,3.429,14.959,6.471,19.885,5.029
				c4.927-1.443,6.4-6.171,6.4-10.971c0-4.8-4.8-14.4-5.714-16.228C332.839,187.677,327.125,189.049,327.125,189.049z"/>
			<path style="fill:#FFFFFF;stroke:#263238;stroke-linecap:round;stroke-linejoin:round;stroke-miterlimit:10;" d="M331.05,187.799
				c0,0-4.104-6.629-7.261-0.947c-3.157,5.682,1.578,11.049,5.051,12.943c3.473,1.894,5.367,2.21,5.367,2.21L331.05,187.799z"/>
			<path style="fill:#FFFFFF;stroke:#263238;stroke-linecap:round;stroke-linejoin:round;stroke-miterlimit:10;" d="
				M385.662,189.693c0,0,5.998-3.472,6.629,1.578c0.631,5.051-3.788,10.102-5.998,11.68c-2.21,1.578-3.788,2.841-3.788,2.841
				L385.662,189.693z"/>
			<g>
				<path style="fill:#FFFFFF;stroke:#263238;stroke-linecap:round;stroke-linejoin:round;stroke-miterlimit:10;" d="
					M330.418,178.644c0,0,3.788,30.305,7.576,36.619c3.788,6.314,10.733,17.362,19.572,17.362c8.839,0,18.625-9.786,22.413-18.941
					c3.788-9.155,5.682-23.992,5.682-23.992s-14.837-5.998-26.517-17.994c-11.68-11.996-8.839-13.574-8.839-13.574
					S336.732,175.803,330.418,178.644z"/>
				<path style="fill:none;stroke:#263238;stroke-linecap:round;stroke-linejoin:round;stroke-miterlimit:10;" d="M354.325,206.42
					c0,0,5.714,4.571,10.743,0.457"/>
				<path style="fill:none;stroke:#263238;stroke-linecap:round;stroke-linejoin:round;stroke-miterlimit:10;" d="M350.896,213.048
					c0,0,7.771,7.543,17.828-0.229"/>
				<g>
					<path style="fill:#263238;" d="M349.553,191.494c0,1.553-1.036,2.812-2.313,2.812c-1.278,0-2.314-1.259-2.314-2.812
						c0-1.553,1.036-2.812,2.314-2.812C348.517,188.682,349.553,189.941,349.553,191.494z"/>
					<path style="fill:#263238;" d="M373.095,192.934c0,1.553-1.036,2.812-2.313,2.812c-1.278,0-2.313-1.259-2.313-2.812
						c0-1.553,1.036-2.812,2.313-2.812C372.059,190.122,373.095,191.382,373.095,192.934z"/>
					<path style="fill:none;stroke:#263238;stroke-linecap:round;stroke-linejoin:round;stroke-miterlimit:10;" d="M341.982,183.106
						c0,0,4.343-2.743,11.428-0.457"/>
					<path style="fill:none;stroke:#263238;stroke-linecap:round;stroke-linejoin:round;stroke-miterlimit:10;" d="M367.353,184.249
						c0,0,3.2-3.2,13.257,3.429"/>
					<path style="fill:none;stroke:#263238;stroke-linecap:round;stroke-linejoin:round;stroke-miterlimit:10;" d="M354.049,198.762
						l-12.521-0.669c-2.278-0.122-4.026-2.067-3.904-4.345l0.267-4.989c0.122-2.278,2.067-4.026,4.345-3.904l12.521,0.669
						c2.278,0.122,4.026,2.067,3.904,4.345l-0.267,4.989C358.272,197.136,356.327,198.884,354.049,198.762z"/>
					<path style="fill:none;stroke:#263238;stroke-linecap:round;stroke-linejoin:round;stroke-miterlimit:10;" d="M378.994,200.26
						l-12.521-0.669c-2.278-0.122-4.026-2.067-3.904-4.345l0.267-4.989c0.122-2.278,2.067-4.026,4.345-3.904l12.521,0.669
						c2.278,0.122,4.026,2.067,3.904,4.345l-0.267,4.989C383.217,198.634,381.272,200.382,378.994,200.26z"/>
					
						<line style="fill:none;stroke:#263238;stroke-linecap:round;stroke-linejoin:round;stroke-miterlimit:10;" x1="358.63" y1="188.76" x2="363.173" y2="189.062"/>
					
						<line style="fill:none;stroke:#263238;stroke-linecap:round;stroke-linejoin:round;stroke-miterlimit:10;" x1="337.897" y1="188.624" x2="330.769" y2="186.438"/>
					
						<line style="fill:none;stroke:#263238;stroke-linecap:round;stroke-linejoin:round;stroke-miterlimit:10;" x1="383.613" y1="191.232" x2="385.662" y2="189.693"/>
				</g>
			</g>
		</g>
		<g>
			<path style="fill:#FFFFFF;stroke:#263238;stroke-linecap:round;stroke-linejoin:round;stroke-miterlimit:10;" d="
				M228.624,272.573l-2.745-7.96c0,0-2.196-7.686-4.666-10.979c-2.47-3.294-7.137-4.392-9.058-6.862
				c-1.921-2.47-4.392-9.332-6.039-11.254c-1.647-1.921-4.941-0.274-4.117,4.117c0.823,4.392,2.745,5.764,3.568,7.411
				c0.823,1.647,2.745,6.039,2.745,6.039s-17.842-3.019-18.939-3.294s-4.392-3.843-5.215-6.039
				c-0.824-2.196-0.549-10.979-3.843-8.235c-3.294,2.745-1.372,8.509-0.823,9.881c0.549,1.372,0,10.979,1.372,15.92
				c1.372,4.941,6.039,9.882,12.901,13.175c6.862,3.294,20.312,4.392,20.312,4.392l5.215,5.215L228.624,272.573z"/>
			<path style="fill:#FFFFFF;stroke:#263238;stroke-linecap:round;stroke-linejoin:round;stroke-miterlimit:10;" d="M177.57,259.123
				c0,0-3.531-6.425-3.531-11.129c0-4.704,0.324-9.083,2.757-7.948c2.433,1.135,1.983,0.973,2.695,5.353
				c0.711,4.379,2.496,9.245,2.82,9.732c0.324,0.487,2.92,6.975,0.649,7.137C180.689,262.43,177.57,259.123,177.57,259.123z"/>
			<path style="fill:#FFFFFF;stroke:#263238;stroke-linecap:round;stroke-linejoin:round;stroke-miterlimit:10;" d="M184.98,259.123
				c0,0-4.941-13.999-7.411-11.528c-2.47,2.47-2.196,5.49,0,11.528c2.196,6.039,6.862,10.705,10.705,11.254
				c3.843,0.549,3.843,0.549,3.843,0.549L184.98,259.123z"/>
			<path style="fill:#FFFFFF;stroke:#263238;stroke-linecap:round;stroke-linejoin:round;stroke-miterlimit:10;" d="
				M215.174,269.828c0,0-6.039-4.941-9.881-4.941c-3.843,0-12.901,1.372-12.901,1.372s-6.313-21.135-8.234-17.567
				s-1.372,7.137,0.549,12.626c1.921,5.49,4.666,10.43,9.058,13.175c4.392,2.745,20.312,4.392,20.312,4.392"/>
		</g>
		<polygon style="fill:#FFFFFF;stroke:#263238;stroke-linecap:round;stroke-linejoin:round;stroke-miterlimit:10;" points="
			234.937,276.416 228.624,270.103 214.625,283.552 221.487,289.042 		"/>
		<g>
			<path style="fill:#858585;stroke:#263238;stroke-linecap:round;stroke-linejoin:round;stroke-miterlimit:10;" d="
				M298.438,213.429c0,0-19.584,0.679-24.25,2.875c-4.666,2.196-5.215,5.49-5.49,6.862c-0.275,1.372-8.509,74.66-8.509,74.66
				l-26.9-25.527l-17.292,16.743c0,0,23.88,31.291,29.37,39.8c5.49,8.509,10.43,16.469,15.097,17.293
				c4.666,0.823,6.313,1.098,12.077-0.549c5.764-1.647,13.177-14.508,13.452-15.606c0.274-1.098,12.624-70.308,12.624-70.308"/>
			
				<line style="fill:none;stroke:#263238;stroke-linecap:round;stroke-linejoin:round;stroke-miterlimit:10;" x1="274.062" y1="305.86" x2="277.721" y2="307.979"/>
			
				<line style="fill:none;stroke:#263238;stroke-linecap:round;stroke-linejoin:round;stroke-miterlimit:10;" x1="260.189" y1="297.826" x2="271.815" y2="304.559"/>
		</g>
		<path style="fill:none;stroke:#263238;stroke-linecap:round;stroke-linejoin:round;stroke-miterlimit:10;" d="M304.695,334.141
			c-2.218,0.915-4.25,1.715-5.998,2.351"/>
		<path style="fill:none;stroke:#263238;stroke-linecap:round;stroke-linejoin:round;stroke-miterlimit:10;" d="M345.103,315.63
			c0,0-18.543,9.027-33.649,15.631"/>
		
			<line style="fill:none;stroke:#263238;stroke-linecap:round;stroke-linejoin:round;stroke-miterlimit:10;" x1="354.47" y1="316.907" x2="331.054" y2="329.254"/>
	</g>
</g>
<g id="Character_2">
	<g>
		<path style="fill:#263238;stroke:#263238;stroke-linecap:round;stroke-linejoin:round;stroke-miterlimit:10;" d="M548.192,340.349
			h30.616c0,0,4.431,0,2.82,6.848c-1.611,6.848-8.057,44.312-8.862,58.412c-0.806,14.099-1.611,22.559-1.611,22.559H452.339
			l14.335-82.612c0.562-3.239,3.38-5.598,6.667-5.582L548.192,340.349z"/>
		<g>
			<path style="fill:#92E3A9;stroke:#263238;stroke-linecap:round;stroke-linejoin:round;stroke-miterlimit:10;" d="
				M452.509,286.714c0,0-34.783,9.739-35.339,13.078c-0.556,3.339-15.304,84.87-15.304,84.87s-72.904-18.922-77.078-18.922
				c-4.174,0-20.313,13.635-22.539,15.304c-2.226,1.67-5.287,3.061-5.565,6.4c-0.278,3.339-3.061,8.626,0,11.13
				c3.061,2.504,5.009,4.73,6.122,3.339c1.113-1.391-0.278-6.122-0.557-6.957c-0.278-0.835,17.531-10.017,17.531-10.017l7.235-1.67
				c0,0-3.617,3.339-8.348,6.122c-4.73,2.783-6.4,7.513-3.896,7.791c2.504,0.278,2.783-0.835,10.017-3.061
				c7.235-2.226,13.357-9.461,13.357-9.461s70.4,32.835,74.296,32.835c3.896,0,3.339,0.835,6.678-3.617
				c3.339-4.452,14.191-36.174,14.191-36.174l4.174,41.183v9.196h109.357c0,0-0.557-118.553-1.113-120.222
				c-0.557-1.67-43.259-28.579-43.259-28.579L452.509,286.714z"/>
			
				<line style="fill:none;stroke:#263238;stroke-linecap:round;stroke-linejoin:round;stroke-miterlimit:10;" x1="422.991" y1="364.502" x2="420.579" y2="361.414"/>
			
				<line style="fill:none;stroke:#263238;stroke-linecap:round;stroke-linejoin:round;stroke-miterlimit:10;" x1="433.309" y1="377.705" x2="425.112" y2="367.215"/>
			
				<line style="fill:none;stroke:#263238;stroke-linecap:round;stroke-linejoin:round;stroke-miterlimit:10;" x1="422.806" y1="343.74" x2="421.555" y2="339.693"/>
			<polyline style="fill:none;stroke:#263238;stroke-linecap:round;stroke-linejoin:round;stroke-miterlimit:10;" points="
				427.743,340.349 433.309,377.705 424.11,347.956 			"/>
			<path style="fill:#FFFFFF;stroke:#263238;stroke-linecap:round;stroke-linejoin:round;stroke-miterlimit:10;" d="
				M511.283,284.871c-5.17-3.291-8.815-5.588-8.815-5.588l-49.959,7.431l23.374,50.365L511.283,284.871z"/>
		</g>
		<g>
			<path style="fill:#C2C2C2;stroke:#263238;stroke-linecap:round;stroke-linejoin:round;stroke-miterlimit:10;" d="M450.02,212.359
				c-6.654,4.577-16.134,14.602-13.998,21.009c2.24,6.719,5.599,8.212,5.599,8.212s-2.986,9.332-0.373,12.318
				c2.613,2.986,3.733,5.973,3.733,5.973s-5.599,15.678-2.986,17.544c2.613,1.866,2.613,1.866,2.613,1.866
				s4.479,17.918,7.839,19.038c3.359,1.12,13.438-1.866,13.438-1.866l10.079,27.25l26.503-44.421l-2.613-8.959
				c0,0,15.678-25.757,9.332-44.048c-3.645-10.505-13.107-17.771-23.543-20.815c-11.534-3.364-21.495,0.338-32.216,4.932
				C452.463,210.807,451.293,211.484,450.02,212.359z"/>
			<path style="fill:#263238;stroke:#263238;stroke-linecap:round;stroke-linejoin:round;stroke-miterlimit:10;" d="
				M509.186,226.276c-3.645-10.505-13.107-17.771-23.543-20.815c-11.534-3.364-21.495,0.338-32.216,4.932
				c-0.965,0.413-2.135,1.09-3.408,1.966c-6.654,4.577-16.134,14.602-13.998,21.009c2.24,6.719,5.599,8.212,5.599,8.212
				s3.652,0.611,6.435-2.172c2.783-2.783,10.017-7.791,15.861-6.956c5.844,0.835,5.844,7.791,3.896,11.13
				c-1.948,3.339-2.504,7.235,2.504,8.348c5.009,1.113,6.4,1.113,6.4,5.009c0,3.896-0.278,6.956,2.783,6.4
				c3.061-0.557,3.339-1.948,4.73-5.009c1.391-3.061,7.513-7.791,10.852,1.669c3.339,9.461-3.339,13.913-3.339,13.913
				s4.312-1.492,8.371-4.031C502.103,266.465,515.054,243.188,509.186,226.276z"/>
			<path style="fill:none;stroke:#263238;stroke-linecap:round;stroke-linejoin:round;stroke-miterlimit:10;" d="M448.335,258.331
				c0,0,8.07-3.617,13.357,0"/>
			<path style="fill:none;stroke:#263238;stroke-linecap:round;stroke-linejoin:round;stroke-miterlimit:10;" d="M448.056,283.375
				c0,0,8.626,3.339,14.191-2.783"/>
			
				<line style="fill:none;stroke:#263238;stroke-linecap:round;stroke-linejoin:round;stroke-miterlimit:10;" x1="444.608" y1="279.283" x2="449.169" y2="280.036"/>
			<path style="fill:#263238;" d="M458.352,264.651c0,1.571-0.874,2.844-1.952,2.844c-1.078,0-1.952-1.273-1.952-2.844
				c0-1.571,0.874-2.844,1.952-2.844C457.478,261.808,458.352,263.081,458.352,264.651z"/>
			<path style="fill:#263238;" d="M465.885,296.454c0,0,9.997-3.897,12.78-5.845c2.783-1.948,4.452-3.339,4.452-3.339
				l-13.635,18.087L465.885,296.454z"/>
		</g>
		<g>
			<path style="fill:#C2C2C2;stroke:#263238;stroke-linecap:round;stroke-linejoin:round;stroke-miterlimit:10;" d="
				M349.469,371.346c-12.736-3.146-23.177-5.606-24.682-5.606c-4.174,0-20.313,13.635-22.539,15.304
				c-2.226,1.67-5.287,3.061-5.565,6.4c-0.278,3.339-3.061,8.626,0,11.13c3.061,2.504,5.009,4.73,6.122,3.339
				c1.113-1.391-0.278-6.122-0.557-6.957c-0.278-0.835,17.53-10.017,17.53-10.017l7.235-1.669c0,0-3.617,3.339-8.348,6.122
				c-4.73,2.783-6.4,7.513-3.896,7.791c2.504,0.278,2.783-0.835,10.017-3.061c7.235-2.226,13.357-9.461,13.357-9.461
				s3.249,1.515,8.38,3.891C350.92,381.812,350.279,374.938,349.469,371.346z"/>
			
				<line style="fill:#FFFFFF;stroke:#263238;stroke-linecap:round;stroke-linejoin:round;stroke-miterlimit:10;" x1="338.143" y1="384.662" x2="341.204" y2="377.427"/>
			<path style="fill:#C2C2C2;stroke:#263238;stroke-linecap:round;stroke-linejoin:round;stroke-miterlimit:10;" d="
				M310.874,381.601c0,0-13.635,8.626-16.139,10.296c-2.504,1.67-11.13,3.617-10.296,5.287c0.835,1.67,2.783,2.504,6.678,1.391
				c3.896-1.113,8.626-2.226,13.078-4.174c4.452-1.948,15.583-9.461,15.583-9.461"/>
		</g>
		<g>
			<path style="fill:#92E3A9;stroke:#263238;stroke-linecap:round;stroke-linejoin:round;stroke-miterlimit:10;" d="
				M532.926,298.957c0,0,18.922,8.348,21.426,13.078c2.504,4.73,7.513,107.965,7.791,111.026c0.278,3.061-2.226,4.174-3.617,4.452
				s-90.157-0.278-92.661-0.278c-2.504,0-8.626-0.557-12.243-2.226c-3.617-1.669-6.4-1.113-6.678-5.565
				c-0.278-4.452,0.278-8.07,0.278-9.739c0-1.67-1.113-6.4,0-9.183c1.113-2.783,3.339-2.783,4.452-3.061
				c1.113-0.278,5.287,0,5.287,0s2.783-2.504,6.957-0.835c4.174,1.67,11.13,11.687,11.13,11.687s6.678,1.948,17.252,0.278
				c10.574-1.669,34.504-6.678,34.504-6.678l-9.461-59.27"/>
			
				<line style="fill:none;stroke:#263238;stroke-linecap:round;stroke-linejoin:round;stroke-miterlimit:10;" x1="526.805" y1="401.914" x2="528.196" y2="411.931"/>
			<path style="fill:#C2C2C2;stroke:#263238;stroke-linecap:round;stroke-linejoin:round;stroke-miterlimit:10;" d="M481.437,427.32
				c-2.915-9.667-0.583-15.197,1.725-18.061c-5.125-0.08-8.114-0.944-8.114-0.944s-6.957-10.017-11.13-11.687
				c-4.174-1.67-6.957,0.835-6.957,0.835s-4.174-0.278-5.287,0c-1.113,0.278-3.339,0.278-4.452,3.061s0,7.513,0,9.183
				c0,1.669-0.556,5.287-0.278,9.739c0.278,4.452,3.061,3.896,6.678,5.565c3.617,1.67,9.739,2.226,12.243,2.226
				C466.497,427.236,472.618,427.271,481.437,427.32z"/>
		</g>
	</g>
</g>
<g id="Device">
	<g>
		<g>
			<polygon style="fill:#FFFFFF;stroke:#263238;stroke-linecap:round;stroke-linejoin:round;stroke-miterlimit:10;" points="
				315.595,422.906 198.3,422.906 178.118,339.947 295.413,339.947 			"/>
			<path style="fill:#FFFFFF;stroke:#263238;stroke-linecap:round;stroke-linejoin:round;stroke-miterlimit:10;" d="
				M260.848,383.021c0,2.565-7.575,4.645-16.919,4.645s-16.919-2.079-16.919-4.645c0-2.565,7.575-4.644,16.919-4.644
				S260.848,380.456,260.848,383.021z"/>
		</g>
		
			<rect x="198.3" y="422.906" style="fill:#C2C2C2;stroke:#263238;stroke-linecap:round;stroke-linejoin:round;stroke-miterlimit:10;" width="192.171" height="5.262"/>
		
			<rect x="317.239" y="422.906" style="fill:#FFFFFF;stroke:#263238;stroke-linecap:round;stroke-linejoin:round;stroke-miterlimit:10;" width="73.233" height="5.262"/>
		
			<rect x="322.918" y="424.406" style="fill:#FFFFFF;stroke:#263238;stroke-linecap:round;stroke-linejoin:round;stroke-miterlimit:10;" width="6.336" height="1.152"/>
		
			<rect x="339.045" y="424.406" style="fill:#FFFFFF;stroke:#263238;stroke-linecap:round;stroke-linejoin:round;stroke-miterlimit:10;" width="6.336" height="1.152"/>
	</g>
</g>
<g id="Table">
	
		<line style="fill:none;stroke:#263238;stroke-linecap:round;stroke-linejoin:round;stroke-miterlimit:10;" x1="649.952" y1="428.168" x2="63.35" y2="428.168"/>
</g>
</svg>
